<?xml version="1.0" encoding="iso-8859-1"?>
<!-- Generator: Adobe Illustrator 28.1.0, SVG Export Plug-In . SVG Version: 6.00 Build 0)  -->
<svg version="1.1" id="image" xmlns="http://www.w3.org/2000/svg" xmlns:xlink="http://www.w3.org/1999/xlink" x="0px" y="0px"
	 width="51.7013px" height="56.582px" viewBox="0 0 51.7013 56.582" enable-background="new 0 0 51.7013 56.582"
	 xml:space="preserve">
<path fill="#FFFFFF" stroke="#000000" stroke-width="0.8" stroke-linejoin="round" stroke-miterlimit="10" d="M51.3013,31.0437
	L19.4486,16.8691l-8.5151,1.3246c0,0,3.5322,12.4257-10.5335,13.8134v6.0552L31.4328,56.182l19.8685-5.4417V31.0437z"/>
<path fill="none" stroke="#000000" stroke-width="0.8" stroke-linejoin="round" stroke-miterlimit="10" d="M51.1121,31.2329
	l-9.272,2.2249c0,0,2.7122,15.5795-10.8489,15.201l0.4415,7.5232"/>
<line fill="none" stroke="#000000" stroke-width="0.8" stroke-linejoin="round" stroke-miterlimit="10" x1="0.2739" y1="32.1963" x2="31.0543" y2="48.6588"/>
<line fill="none" stroke="#000000" stroke-width="0.8" stroke-linejoin="round" stroke-miterlimit="10" x1="10.9335" y1="18.3829" x2="41.9663" y2="33.584"/>
<path fill="#FFFFFF" stroke="#000000" stroke-width="0.8" stroke-linejoin="round" stroke-miterlimit="10" d="M17.1478,0.2429
	c0,0,0.5046,4.1217,0.883,5.3729c0,0-2.9014,7.3601,0.1261,16.5603c0,0-2.9014,3.6065,0.1892,16.4131l-0.0631,1.472
	c0,0,1.6399,3.1649,5.4244,2.2816c0,0,6.1182-6.7713,2.9645-20.2403c0,0,2.2076-11.1138-0.1262-16.5603
	c0,0,0.6307-3.6801,0.6307-5.2993"/>
<path fill="none" stroke="#000000" stroke-width="0.8" stroke-linejoin="round" stroke-miterlimit="10" d="M26.4918,5.3707
	c0,0-5.4022,11.9534-8.3072,16.711"/>
<line fill="none" stroke="#000000" stroke-width="0.8" stroke-linejoin="round" stroke-miterlimit="10" x1="20.5544" y1="0.2861" x2="18.0826" y2="5.5789"/>
<path fill="none" stroke="#000000" stroke-width="0.8" stroke-linejoin="round" stroke-miterlimit="10" d="M26.6721,22.1025
	c0,0-1.0467,8.1266-7.4937,19.0393"/>
<path fill="none" stroke="#000000" stroke-width="0.8" stroke-linejoin="round" stroke-miterlimit="10" d="M26.9095,6.6245
	c0.0383,0.1342,2.5039,15.1186-8.5633,31.9646"/>
<path fill="none" stroke="#000000" stroke-width="0.8" stroke-linejoin="round" stroke-miterlimit="10" d="M26.5459,5.5422
	c0,0-1.9369,9.3591-6.6528,17.5911c0,0-3.0289,4.9213-2.7605,8.9031"/>
<path fill="none" stroke="#000000" stroke-width="0.8" stroke-linejoin="round" stroke-miterlimit="10" d="M22.2702,0.182
	c0,0-4.8693,9.5295-5.176,16.5088"/>
</svg>
