<?xml version="1.0" encoding="iso-8859-1"?>
<!-- Generator: Adobe Illustrator 28.1.0, SVG Export Plug-In . SVG Version: 6.00 Build 0)  -->
<svg version="1.1" id="image" xmlns="http://www.w3.org/2000/svg" xmlns:xlink="http://www.w3.org/1999/xlink" x="0px" y="0px"
	 width="56.8px" height="51.9143px" viewBox="0 0 56.8 51.9143" enable-background="new 0 0 56.8 51.9143" xml:space="preserve">
<polygon fill="#FFFFFF" stroke="#000000" stroke-width="0.8" stroke-linejoin="round" stroke-miterlimit="10" points="56.4,45.2972 
	56.4,25.2974 21.6981,10.5765 5.194,13.9473 0.4,18.966 0.4,33.0482 32.7299,51.5143 "/>
<polyline fill="none" stroke="#000000" stroke-width="0.8" stroke-linejoin="round" stroke-miterlimit="10" points="
	56.0255,25.5221 36.8497,29.7917 32.5801,36.0089 32.5801,51.5143 "/>
<line fill="none" stroke="#000000" stroke-width="0.8" stroke-linejoin="round" stroke-miterlimit="10" x1="0.4" y1="19.0409" x2="32.655" y2="36.2336"/>
<line fill="none" stroke="#000000" stroke-width="0.8" stroke-linejoin="round" stroke-miterlimit="10" x1="5.119" y1="14.0222" x2="36.9995" y2="29.7917"/>
<polyline fill="#FFFFFF" stroke="#000000" stroke-width="0.8" stroke-linejoin="round" stroke-miterlimit="10" points="19.0888,0 
	19.0888,23.4625 23.9844,31.3682 28.2845,24.3556 28.2845,0 "/>
<path fill="none" stroke="#000000" stroke-width="0.8" stroke-linejoin="round" stroke-miterlimit="10" d="M28.2845,20.717
	c0,0-2.8116-1.0254-4.9948,3.1755c0,0-1.9185-1.8524-3.1093-0.1985c0,0-0.43-0.3639-0.9593-0.827"/>
<path fill="none" stroke="#000000" stroke-width="0.8" stroke-linejoin="round" stroke-miterlimit="10" d="M20.1804,23.6941
	l2.5139,5.5571c0,0,0.1985-4.3002,0.5954-5.2263"/>
</svg>
