<?xml version="1.0" encoding="iso-8859-1"?>
<!-- Generator: Adobe Illustrator 28.1.0, SVG Export Plug-In . SVG Version: 6.00 Build 0)  -->
<svg version="1.1" id="image" xmlns="http://www.w3.org/2000/svg" xmlns:xlink="http://www.w3.org/1999/xlink" x="0px" y="0px"
	 width="56.0781px" height="56.4px" viewBox="0 0 56.0781 56.4" enable-background="new 0 0 56.0781 56.4" xml:space="preserve">
<path fill="#FFFFFF" stroke="#000000" stroke-width="0.8" stroke-linejoin="round" stroke-miterlimit="10" d="M55.6781,49.5963
	V29.3304l-34.3342-15.251L4.7696,17.8463c0,0-4.1436,1.2807-4.3696,4.9723v14.2389L31.8713,56L55.6781,49.5963z"/>
<path fill="none" stroke="#000000" stroke-width="0.8" stroke-linejoin="round" stroke-miterlimit="10" d="M55.3768,29.4811
	l-19.5878,4.5956c0,0-3.9929,1.3561-3.8422,5.9517v15.8349"/>
<path fill="#FFFFFF" stroke="#000000" stroke-width="0.8" stroke-linejoin="round" stroke-miterlimit="10" d="M32.3979,10.5356
	c0-1.6254-5.2727-2.943-11.7769-2.943S8.8441,8.9103,8.8441,10.5356l-0.0063,0.3042v18.6085c0,0,9.4926-1.144,9.3419,7.6705h1.5068
	l0.0753,0.9934c0,0,1.0547,0.6027,2.6368,0v-0.9794h1.3561c0,0-1.0547-7.6091,8.6639-7.3831V10.6892L32.3979,10.5356z"/>
<path fill="#FFFFFF" stroke="#000000" stroke-width="0.8" stroke-linejoin="round" stroke-miterlimit="10" d="M15.8965,0v6.7813
	c0,2.5593-2.158,3.5059-2.158,3.5059c0,0.9247,3.0846,1.6742,6.8897,1.6742s6.8897-0.7496,6.8897-1.6742
	c0,0-2.3055-1.1513-2.3055-3.2192V0"/>
<path fill="none" stroke="#000000" stroke-width="0.8" stroke-linejoin="round" stroke-miterlimit="10" d="M8.8375,29.3254
	c0,0-1.1579-7.719,7.4875-9.7646l1.4666-0.8105v13.8943h1.5438c0,0,0.2777,1.5768,0.3511,4.4743"/>
<path fill="none" stroke="#000000" stroke-width="0.8" stroke-linejoin="round" stroke-miterlimit="10" d="M22.3458,37.0058
	c0,0-0.0772-4.3613,2.5473-9.3015c0,0,6.7156-8.9927,7.2559-11.4242l0.2316-0.3088"/>
<path fill="none" stroke="#000000" stroke-width="0.8" stroke-linejoin="round" stroke-miterlimit="10" d="M32.3979,10.5356
	c0,1.6254-5.2727,2.943-11.7769,2.943S8.8441,12.161,8.8441,10.5356"/>
</svg>
