<?xml version="1.0" encoding="iso-8859-1"?>
<!-- Generator: Adobe Illustrator 28.1.0, SVG Export Plug-In . SVG Version: 6.00 Build 0)  -->
<svg version="1.1" id="image" xmlns="http://www.w3.org/2000/svg" xmlns:xlink="http://www.w3.org/1999/xlink" x="0px" y="0px"
	 width="56.8px" height="53.2277px" viewBox="0 0 56.8 53.2277" enable-background="new 0 0 56.8 53.2277" xml:space="preserve">
<path fill="#FFFFFF" stroke="#000000" stroke-width="0.8" stroke-miterlimit="10" d="M56.4,24.4036L23.6681,10.2435l-12.5235,2.1347
	v9.6773c0,0,0.4269,2.6328-2.9174,3.4155L0.4,27.2499v7.756L31.2818,52.795L56.4,45.2524V24.4036z"/>
<path fill="none" stroke="#000000" stroke-width="0.8" stroke-miterlimit="10" d="M56.0442,24.5459l-13.4485,3.3443v9.3926
	c0,0,0.2135,3.8424-3.4867,4.6963l-7.8983,1.5654v9.2503"/>
<line fill="none" stroke="#000000" stroke-width="0.8" stroke-miterlimit="10" x1="0.5423" y1="27.3922" x2="31.353" y2="43.687"/>
<line fill="none" stroke="#000000" stroke-width="0.8" stroke-miterlimit="10" x1="11.2869" y1="12.5205" x2="42.9515" y2="27.9614"/>
<path fill="#FFFFFF" stroke="#000000" stroke-width="0.8" stroke-miterlimit="10" d="M18.3295,0.1306
	c0,0,0.514,5.7572,1.4907,9.2012c0,0-3.1356,5.9114,0,14.9583c0,0-2.6216,4.3693-0.8739,10.5377c0,0,1.6449,1.0281,3.0842,0.4112
	l-0.8739,1.7477c0,0,2.4674,0.4626,4.2151-1.0795l3.0328,0.6682c0,0,2.5702-5.0375,0.3084-12.6452c0,0,2.3645-6.8366-0.1028-14.9069
	c0,0,1.1823-2.4674,1.3365-8.8928"/>
<path fill="none" stroke="#000000" stroke-width="0.8" stroke-miterlimit="10" d="M24.9091,0.2335c0,0-3.5468,4.9347-5.0889,9.0984"
	/>
<path fill="none" stroke="#000000" stroke-width="0.8" stroke-miterlimit="10" d="M28.456,9.0748c0,0-3.3926,6.7852-4.3179,8.0703
	c0,0-4.2151,6.631-4.3179,7.145"/>
<path fill="none" stroke="#000000" stroke-width="0.8" stroke-miterlimit="10" d="M28.713,23.9303c0,0-1.8505,9.4068-3.3412,11.9769
	"/>
<path fill="none" stroke="#000000" stroke-width="0.8" stroke-miterlimit="10" d="M28.6102,9.6916c0,0,1.4907,8.9442-1.7991,16.5518
	l-4.7805,8.9956"/>
</svg>
