<?xml version="1.0" encoding="iso-8859-1"?>
<!-- Generator: Adobe Illustrator 28.1.0, SVG Export Plug-In . SVG Version: 6.00 Build 0)  -->
<svg version="1.1" id="image" xmlns="http://www.w3.org/2000/svg" xmlns:xlink="http://www.w3.org/1999/xlink" x="0px" y="0px"
	 width="56.9688px" height="57.803px" viewBox="0 0 56.9688 57.803" enable-background="new 0 0 56.9688 57.803"
	 xml:space="preserve">
<polygon fill="#FFFFFF" stroke="#010101" stroke-width="0.8" stroke-linejoin="round" stroke-miterlimit="10" points="
	56.5687,29.7343 22.725,14.8312 11.0281,17.3843 11.325,30.0312 0.4,32.4655 0.4,39.828 31.75,57.403 56.45,50.9312 "/>
<line fill="#FFFFFF" stroke="#010101" stroke-width="0.8" stroke-miterlimit="10" x1="11.0281" y1="17.3843" x2="42.7344" y2="32.9999"/>
<line fill="#FFFFFF" stroke="#010101" stroke-width="0.8" stroke-miterlimit="10" x1="11.325" y1="30.0312" x2="42.2" y2="46.0624"/>
<line fill="#FFFFFF" stroke="#010101" stroke-width="0.8" stroke-miterlimit="10" x1="56.2719" y1="29.6749" x2="42.4969" y2="32.8812"/>
<polyline fill="none" stroke="#010101" stroke-width="0.8" stroke-miterlimit="10" points="31.75,57.403 31.75,49.2687 
	42.675,46.1218 42.7344,32.9999 "/>
<path fill="#FFFFFF" stroke="#010101" stroke-width="0.8" stroke-miterlimit="10" d="M18.7097,0.3116
	c0.1021,0.0822-0.5743,3.8533-0.625,5.9375c-0.0516,2.1244,1,6.6875,1,6.6875s-3.5,10.3125,0.25,15.5625c0,0-1.5,3.5-1.5625,4.5
	c-0.0625,1,0.4375,5.5,0.4375,5.5l3.625-0.0625l-0.8125,3.1875l4.875-2.625l3.375,0.5c0,0,1-9.25-0.625-10.5
	c0,0,3.8125-10.3125-0.375-14.9375c0,0,0.8125-4.6875,0.9375-7s-0.5625-6.8195-0.5625-6.8195"/>
<path fill="none" stroke="#010101" stroke-width="0.8" stroke-miterlimit="10" d="M21.6922,38.4916
	c-0.0625-0.1875,10.1425-12.555,6.58-24.43c0,0-6.0904,8.2755-8.9182,14.4665"/>
<path fill="none" stroke="#010101" stroke-width="0.8" stroke-miterlimit="10" d="M18.2097,25.5616c0,0,9.75-19.6875,10-25.3125"/>
<path fill="none" stroke="#010101" stroke-width="0.8" stroke-miterlimit="10" d="M19.0847,12.9366
	c0.3125-0.25,3.1825-9.4092,4.625-12.6875"/>
<line fill="none" stroke="#010101" stroke-width="0.8" stroke-linejoin="round" stroke-miterlimit="10" x1="0.3287" y1="32.6133" x2="31.8152" y2="49.3887"/>
</svg>
