<svg width="132" height="132" fill="none" xmlns="http://www.w3.org/2000/svg"><path d="M81.957 15.989C81.957 7.176 74.781 0 65.97 0h-.063a64.32 64.32 0 0 0-16.304 2.077c-3.021.756-5.917 1.7-8.686 2.896-2.581 1.07-5.1 2.266-7.491 3.65C12.778 20.333 0 42.3 0 65.97v.818c0 2.77.252 5.54.63 8.309.188 1.448 1.447 2.518 2.895 2.518h.378c1.573-.252 2.706-1.7 2.455-3.273a50.229 50.229 0 0 1-.567-7.554v-.693c0-21.59 11.708-41.608 30.466-52.309 2.204-1.258 4.47-2.392 6.862-3.336a55.003 55.003 0 0 1 7.868-2.644l1.51-.377c-1.51 2.392-2.454 5.224-2.517 8.183-1.322.44-2.644.881-3.966 1.448-2.077.818-4.091 1.825-5.98 2.895-1.951 1.07-3.84 2.33-5.665 3.714C24.298 31.033 17.31 41.86 14.478 53.883c-2.581.755-4.532 3.084-4.721 5.98-.189 3.588 2.58 6.672 6.232 6.86 3.587.19 6.672-2.58 6.86-6.23a6.537 6.537 0 0 0-2.643-5.603c2.58-10.575 8.75-20.08 17.625-26.69 1.637-1.196 3.336-2.329 5.036-3.273 1.7-.944 3.462-1.825 5.35-2.58.882-.379 1.826-.693 2.707-1.008a15.97 15.97 0 0 0 4.155 6.295c-.693.189-1.322.377-2.015.63-2.266.817-4.532 1.762-6.61 2.958-1.95 1.133-3.839 2.392-5.538 3.777-7.743 6.294-12.842 15.107-14.352 24.927a2.914 2.914 0 0 0 2.455 3.336c.126 0 .314.063.44.063a2.959 2.959 0 0 0 2.896-2.455c1.259-8.372 5.602-15.926 12.275-21.276 1.447-1.196 3.084-2.266 4.72-3.21 1.763-1.008 3.651-1.826 5.603-2.519a34.264 34.264 0 0 1 11.016-1.825c8.812-.063 15.988-7.239 15.988-16.051Zm-65.654 47.84h-.189c-2.014-.127-3.588-1.826-3.462-3.84a3.665 3.665 0 0 1 1.07-2.392 3.565 3.565 0 0 1 2.581-1.07h.19a3.68 3.68 0 0 1 2.517 1.195c.189.19.315.441.504.693.314.63.503 1.259.44 1.951-.063 1.952-1.7 3.462-3.65 3.462ZM65.97 26.122c-5.603 0-10.198-4.532-10.198-10.197 0-5.603 4.532-10.135 10.135-10.198 5.602 0 10.134 4.532 10.134 10.198.126 5.665-4.47 10.197-10.072 10.197Z" fill="url(#a)"/><path d="M98.512 8.624c-2.392-1.385-4.91-2.644-7.553-3.651-1.511-.63-3.21.126-3.777 1.574-.63 1.51.126 3.21 1.573 3.776a57.454 57.454 0 0 1 6.862 3.337c18.821 10.7 30.466 30.718 30.466 52.309v.692c0 2.518-.189 5.036-.567 7.617a59.988 59.988 0 0 1-1.699 8.12c-.126.504-.315 1.007-.441 1.51a16.547 16.547 0 0 0-5.791-6.357c.315-1.385.567-2.77.755-4.154.315-2.204.504-4.407.504-6.61v-.818c0-2.015-.126-4.029-.315-5.98a52.735 52.735 0 0 0-16.177-32.418c.692-2.644-.378-5.476-2.77-7.05-3.021-1.951-7.113-1.133-9.064 1.888-1.951 3.022-1.133 7.113 1.888 9.065a6.372 6.372 0 0 0 6.169.503c7.868 7.617 12.967 17.751 14.163 28.641.189 1.7.315 3.525.315 5.288v.755c0 1.951-.189 3.903-.441 5.917-.126.944-.314 1.889-.503 2.833-.945-.19-1.952-.252-2.959-.252-1.574 0-3.147.252-4.595.692a23.04 23.04 0 0 0 .441-2.014c.503-2.392.755-4.784.755-7.176v-.692c0-2.015-.126-4.029-.441-6.043-1.51-9.82-6.61-18.633-14.352-24.927a2.903 2.903 0 0 0-4.091.44 2.903 2.903 0 0 0 .44 4.092 34.166 34.166 0 0 1 12.275 21.276c.252 1.7.378 3.4.378 5.162v.566a41.846 41.846 0 0 1-.63 6.17 32.315 32.315 0 0 1-3.902 10.26l-.063.062-.063.063c-2.14 3.714-2.707 7.995-1.637 12.15 1.07 4.154 3.714 7.616 7.428 9.756a15.824 15.824 0 0 0 8.057 2.203c5.225 0 10.072-2.581 13.093-6.798.063-.063.126-.189.189-.252l.063-.063c0-.063.063-.063.063-.126.126-.252.315-.44.441-.692.125-.252.251-.44.377-.693v-.063a66.617 66.617 0 0 0 6.106-14.478 72.737 72.737 0 0 0 1.888-8.938c.378-2.77.567-5.54.63-8.309v-.818c-.063-23.668-12.841-45.637-33.488-57.345Zm.504 19.388a3.734 3.734 0 0 1-3.085 1.636h-.063a3.534 3.534 0 0 1-1.951-.566c-1.7-1.133-2.14-3.4-1.07-5.036.692-1.07 1.825-1.637 3.084-1.637.693 0 1.385.19 2.015.567.818.504 1.322 1.322 1.51 2.14.315.944.19 1.951-.44 2.896Zm10.134 73.27c-1.762 0-3.525-.504-5.099-1.385-2.329-1.385-4.028-3.588-4.72-6.169-.693-2.643-.315-5.35 1.07-7.742 1.825-3.148 5.161-5.036 8.812-5.036 1.763 0 3.525.504 5.099 1.385 2.329 1.385 4.028 3.588 4.721 6.169.692 2.643.315 5.35-1.07 7.742-1.826 3.148-5.225 5.036-8.813 5.036Z" fill="url(#b)"/><path d="M106.569 114.249c-1.007-1.259-2.769-1.511-4.091-.504-2.015 1.511-4.092 2.959-6.295 4.218a59.8 59.8 0 0 1-30.215 8.183 60.2 60.2 0 0 1-30.277-8.183 54.828 54.828 0 0 1-6.295-4.218 64.607 64.607 0 0 1-6.232-5.476c-.377-.378-.755-.755-1.07-1.133h.63c2.706 0 5.35-.692 7.68-1.951 1.07.944 2.14 1.888 3.273 2.706 1.762 1.385 3.588 2.644 5.539 3.714 1.951 1.133 3.966 2.203 6.043 3.085a52.978 52.978 0 0 0 20.71 4.217c5.098 0 10.071-.692 14.855-2.14 1.951 1.888 4.973 2.455 7.49 1.133a6.566 6.566 0 0 0 2.896-8.813 6.566 6.566 0 0 0-8.812-2.895 6.58 6.58 0 0 0-3.588 5.099 46.692 46.692 0 0 1-12.904 1.825c-6.421 0-12.59-1.259-18.444-3.777-1.825-.755-3.65-1.699-5.413-2.707a51.765 51.765 0 0 1-4.91-3.336c-.756-.566-1.511-1.196-2.266-1.825.566-.693 1.133-1.448 1.573-2.266.819-1.448 1.448-2.959 1.763-4.532.503.44 1.007.944 1.51 1.384 1.826 1.574 3.777 3.022 5.855 4.218 1.951 1.133 3.965 2.14 6.043 2.895 4.532 1.763 9.316 2.581 14.163 2.581 4.91 0 9.63-.881 14.163-2.581 1.51-.566 2.266-2.266 1.7-3.776-.567-1.511-2.267-2.267-3.778-1.7a34.25 34.25 0 0 1-24.171 0c-1.763-.693-3.525-1.51-5.162-2.518a40.557 40.557 0 0 1-5.036-3.588c-2.706-2.392-5.035-5.162-6.86-8.183-1.386-2.518-3.4-4.658-5.98-6.106a15.826 15.826 0 0 0-8.058-2.203c-5.665 0-10.953 3.021-13.848 7.931-2.14 3.714-2.707 7.995-1.637 12.15.44 1.699 1.196 3.272 2.14 4.72a67.597 67.597 0 0 0 9.631 12.401 68.036 68.036 0 0 0 6.798 5.98c2.204 1.699 4.533 3.21 6.924 4.658 10.01 5.854 21.528 9.001 33.174 9.001 11.645 0 23.164-3.084 33.173-8.938a63.462 63.462 0 0 0 6.924-4.658c1.448-1.008 1.699-2.833.692-4.092Zm-22.787-5.476a3.67 3.67 0 0 1 1.637-.378c1.385 0 2.644.755 3.273 2.014a3.55 3.55 0 0 1 .19 2.77c-.316.944-.945 1.699-1.826 2.14a3.67 3.67 0 0 1-1.637.378c-.315 0-.692-.063-1.007-.126a3.409 3.409 0 0 1-2.266-1.889 3.548 3.548 0 0 1-.189-2.769c.063-.252.189-.504.315-.756.377-.566.881-1.07 1.51-1.384ZM13.974 85.986c1.826-3.148 5.162-5.036 8.813-5.036 1.762 0 3.525.504 5.099 1.385 2.329 1.385 4.028 3.588 4.72 6.169.693 2.643.315 5.35-1.07 7.742-1.825 3.148-5.161 5.036-8.812 5.036-1.763 0-3.525-.504-5.099-1.385-1.385-.818-2.58-1.951-3.399-3.273-.126-.252-.315-.504-.44-.755a9.483 9.483 0 0 1-.882-2.204c-.63-2.58-.252-5.287 1.07-7.68Z" fill="url(#c)"/><path d="M65.969 82.02c8.865 0 16.051-7.186 16.051-16.051 0-8.865-7.186-16.052-16.051-16.052-8.865 0-16.052 7.186-16.052 16.052 0 8.865 7.187 16.051 16.052 16.051Z" fill="#5C26E1"/><defs><linearGradient id="a" x1="40.978" y1="0" x2="40.978" y2="77.614" gradientUnits="userSpaceOnUse"><stop stop-color="#1ACAFF"/><stop offset="1" stop-color="#7A54FF"/></linearGradient><linearGradient id="b" x1="109.111" y1="4.75" x2="109.111" y2="107.199" gradientUnits="userSpaceOnUse"><stop stop-color="#1ACAFF"/><stop offset="1" stop-color="#7A54FF"/></linearGradient><linearGradient id="c" x1="56.882" y1="75.096" x2="56.882" y2="131.937" gradientUnits="userSpaceOnUse"><stop stop-color="#1ACAFF"/><stop offset="1" stop-color="#7A54FF"/></linearGradient></defs></svg>