<svg xmlns="http://www.w3.org/2000/svg" width="460" height="100" xmlns:v="https://vecta.io/nano"><style><![CDATA[.J{stroke-width:.2}.K{fill:none}.L{stroke:#000}.M{font-family:Serif}.N{text-anchor:middle}.O{stroke-linecap:round}.P{font-size:20px}.Q{stroke-linejoin:round}.R{stroke:rgb(0%,0%,0%)}.S{fill:rgb(0%,0%,0%)}]]></style><path d="M161.66 16.64h-36.13.16c-9.52.66-19.01 1.68-28.45 3.08a92.27 92.27 0 0 0-15.94.4h0a80.53 80.53 0 0 0-13.52-3.55c-8.01 0-14.52 6.5-14.52 14.51A14.53 14.53 0 0 0 67.78 45.6c7-.11 13.96-.96 20.77-2.53l.27.03c10.85 1.2 21.77 1.54 32.69 1.01h.28c3.1.71 6.26 1.19 9.45 1.42h30.42V16.64zm0 0" fill="rgb(70.980835%,71.372986%,71.372986%)"/><path d="M161.66 45.53l26.97 7.23h228.36l2.41-2.41V11.83l-2.41-2.41H188.63l-26.97 7.22v28.89zm0 0" fill="rgb(86.66687%,88.627625%,89.804077%)"/><g class="K O"><g stroke="rgb(1.568604%,0%,0%)" stroke-miterlimit="10" class="Q"><path d="M160.4 16.68h-34.83m3.62 23.81c-9.34-6.61-20.2-10.77-31.59-12.06m-.33-8.7c-5.32-.31-10.63-.16-15.92.42m21.92 11.42c7.86 4.89 16.72 7.95 25.92 8.91M86.17 22.05l17.1 9.52m0 1.93c6.61 4.11 13.95 6.93 21.61 8.3M86.17 23.98l17.1 9.52m-17.1-11.45a80.01 80.01 0 0 0-18.34-5.45m18.34 7.38a80.01 80.01 0 0 0-18.34-5.45m35.44 17.89a61.29 61.29 0 0 0 27.99 9.07M86.18 26.9l17.1 9.52m-17.1-9.52c-5.86-2.56-12.02-4.4-18.34-5.48m57.74 18.57l-1.67 4.54m7.36.96h29.14m-14.44-14.67c-4.16-2.91-8.54-5.55-13.03-7.87m13.03 7.87c-15.8-5.36-32.13-9.07-48.68-11.1m31.91 20.76c5.88-2.7 11.48-5.95 16.77-9.66M67.84 45.58c6.98-.12 13.95-.96 20.77-2.54m-18.49-4.82c3.1-5.48 2.16-12.34-2.28-16.81m3.25 18.9c-2.45-6.53-8.75-10.84-15.73-10.72m15.73 10.72c-1.93-.09-3.6 1.39-3.72 3.31-.02.68.14 1.34.47 1.95m0-24.16c-5.43-.05-10.37 3.17-12.49 8.18m12.49-11.07c-6.37 0-11.74 4.75-12.49 11.07m12.49-13c-8.02 0-14.51 6.49-14.51 14.48 0 8.02 6.49 14.5 14.51 14.5M53.35 30.1l2-.52M71.08 40.3c16.6 3.31 33.56 4.58 50.47 3.76m4.19-27.41c-9.52.66-19 1.67-28.46 3.06m41.51 1.97a142.74 142.74 0 0 0-41.51-1.97m26.22 4.65c5.13-.61 10.23-1.5 15.29-2.68m0 0c-4.26-1.93-8.61-3.6-13.05-5.03M53.35 30.1c3.83 5.12 9.1 9.03 15.15 11.14m120.16 11.45h228.32M188.66 9.44h228.32m-273.85 7.22h18.56m257.69-4.82l-2.4-2.4m2.4 40.85V11.83m-2.4 40.85l2.4-2.4m-276.25-4.82h18.56m255.29 7.22V9.43m-255.29 7.22l26.98-7.22m-26.98 7.22v28.82m0 0l26.98 7.22m0 0V9.44" class="J"/><path d="M188.66 52.64h228.22l2.4-2.4V11.92l-2.4-2.4H188.66l-26.95 7.19h-36.1.16c-9.52.66-19 1.67-28.46 3.06-5.29-.31-10.63-.19-15.9.4h-.02c-4.37-1.57-8.89-2.75-13.5-3.53-8.02 0-14.51 6.46-14.51 14.43S59.87 45.5 67.89 45.5a97.15 97.15 0 0 0 20.74-2.52l.28.05c10.84 1.18 21.75 1.53 32.67.99h.28a57.86 57.86 0 0 0 9.43 1.41h30.41l26.95 7.19zm0 0" stroke-width=".5"/></g><g class="J R"><path d="M27.4 15.69h34.38M27.4 46.44h34.38" class="Q"/><path d="M31.41 20.48v20.45"/></g></g><path d="M32.98 23.46l-1.57-7.86-1.58 7.86h3.15zm0 15.18l-1.57 7.86-1.58-7.86h3.15zm0 0" class="S"/><path d="M46.28 31.29h30.08m13.79 0h30.08m101.54 0h30.08m-117.83 0h30.08m101.54 0h30.08m-117.83 0h30.08m101.54 0h30.08m13.79 0h30.08m13.79 0h30.08m-346.82 0h5.48m126.14 0h5.48m-93.23 0h5.48m126.14 0h5.48m-93.22 0h5.48m126.13 0h5.48m38.39 0h5.48m38.39 0h5.48" class="J K O Q R"/><path d="M52.03 46.55l6.67-4.45-4.45 6.67-2.22-2.22zm0 0" class="S"/><path d="M54.63 46.34L25.54 75.42H8.68" class="J K O Q R"/><text x="447.17" xml:space="preserve" y="37.47" class="M N P">D</text><path transform="rotate(270 437.157 30.97)" d="M421.31 30.97h31.7" class="J K L"/><path d="M435.714 45.731l1.44 7.08 1.44-7.08h-2.88z"/><path d="M421.22 9.42h19.3" class="J K L"/><path d="M438.46 16.4l-1.44-7.08-1.44 7.08h2.88z"/><path d="M440.61 52.711h-19.3M56.12 71.25h67.2" class="J K L"/><text font-size="15" x="93.31" xml:space="preserve" y="69.28" class="M N">1</text><text x="82.85" xml:space="preserve" y="67.35" class="M N P">L</text><text x="259.92" xml:space="preserve" y="83.74" class="M N P">L</text><path transform="rotate(270 52.893 65.287)" d="M43.24 65.28h19.3" class="J K L"/><path d="M59.865 70.041l-7.08 1.44 7.08 1.44v-2.88z"/><path transform="rotate(270 52.893 81.029)" d="M43.24 81.03h19.3" class="J K L"/><path d="M412.802 88.659l7.08-1.44-7.08-1.44v2.88z"/><path transform="rotate(270 419.781 73.129)" d="M402.23 73.13h35.1" class="J K L"/><path d="M59.873 85.784l-7.08 1.44 7.08 1.44v-2.88z"/><path d="M419.784 87.224h-360.7" class="J K L"/><path d="M117.845 72.713l7.08-1.44-7.08-1.44v2.88z"/><path transform="rotate(90 124.816 65.219)" d="M115.07 65.21h19.3" class="J K L"/><text x="16.65" xml:space="preserve" y="70.72" class="M N P">R</text><text font-size="15" x="23.04" xml:space="preserve" y="37.44" class="M N">1</text><text x="12.83" xml:space="preserve" y="35.5" class="M N P">D</text></svg>