<svg xmlns="http://www.w3.org/2000/svg" width="510" height="140" xmlns:v="https://vecta.io/nano"><style><![CDATA[.B{fill:rgb(13.725281%,12.156677%,12.548828%)}.C{font-size:14px}.D{fill:rgb(11.764526%,11.764526%,12.548828%)}.E{stroke:rgb(13.725281%,12.156677%,12.548828%)}.F{stroke-linecap:round}.G{stroke-linejoin:round}.H{stroke:rgb(100%,100%,100%)}.I{stroke-width:.988}]]></style><defs><clipPath id="A"><path d="M5.24 55.54h17.68v23H5.24v-23zm0 0"/></clipPath><clipPath id="B"><path d="M5.24 57.54h12.68v19H5.24v-19zm0 0"/></clipPath><path id="C" d="M109.33 111.72h7.94v-.5h-7.94v.5zm0 0"/></defs><path d="M108.04 66.67l21.03-21.02s12.74.96 25.17 5.42c0 0 44.29-5.42 61.49-5.42h234.49l3.83 3.19V84.5l-3.83 3.5H214.77s-26.49-.33-39.93-4.53c0 0-6.85-.14-8.96-.56 0 0-17.21 5.04-37.21 4.9l-20.63-21.14" fill="rgb(80.784607%,84.706116%,87.059021%)"/><g class="B"><path d="M108.04 66.67l-.57-.57 21.02-21.02a.88.88 0 0 1 .64-.24c.04.01 12.83.96 25.38 5.47l-.27.76-.1-.8c.02 0 44.27-5.42 61.59-5.43h234.49l.52.19 3.82 3.19c.19.15.29.38.29.62V84.5a.81.81 0 0 1-.26.6l-3.82 3.5-.55.21H214.76c-.01 0-6.64-.08-14.97-.7-8.34-.61-18.34-1.74-25.19-3.87l.24-.77-.01.8c-.01 0-1.73-.03-3.71-.12-2-.09-4.22-.22-5.39-.45l.15-.79.23.77c-.04.02-16.83 4.93-36.62 4.93h-.83a.8.8 0 0 1-.57-.24l-20.63-21.13c-.31-.32-.31-.83.01-1.14l.57.57.58-.56 20.62 21.13-.57.57V87h.82c9.76 0 18.82-1.22 25.42-2.43 3.31-.61 6-1.22 7.86-1.68.93-.22 1.66-.42 2.15-.55s.74-.21.74-.21l.39-.01c.92.19 3.18.33 5.14.42l3.67.12.22.04c6.59 2.06 16.55 3.2 24.82 3.8a285.34 285.34 0 0 0 10.55.58l4.33.12-.01.8v-.8h235.14l3.33-3.05V49.22l-3.31-2.76h-234.2c-8.53 0-23.91 1.35-37.11 2.7l-17.1 1.86-7.18.85-.37-.04c-6.15-2.21-12.4-3.56-17.11-4.34-2.35-.4-4.32-.66-5.7-.82l-2.15-.21.06-.81.57.57-21.03 21.02-.57-.57.58-.56-.58.56"/><path d="M468.48 66.86h-3.85v-.5h3.85v.5m-8.82 0h-4.81v-.5h4.81v.5m-352.41 0h-.56v-.5h.6a.86.86 0 0 0-.04.5m-5.53 0H86.8v-.5h14.92v.5"/></g><path d="M453.24 66.86h-2.6v-.5h2.6v.5m-3.1 0h-5.4v-.5h5.4v.5m-10.37 0h-4.97v-.5h4.97v.5m-9.94 0h-14.91v-.5h14.91v.5m-19.89 0h-4.97v-.5h4.97v.5m-9.94 0h-14.91v-.5H400v.5m-19.88 0h-4.98v-.5h4.98v.5m-9.95 0h-14.91v-.5h14.91v.5m-19.88 0h-4.98v-.5h4.98v.5m-9.95 0h-14.91v-.5h14.91v.5m-19.88 0h-4.97v-.5h4.97v.5m-9.95 0H295.6v-.5h14.91v.5m-19.88 0h-4.97v-.5h4.97v.5m-9.94 0h-14.92v-.5h14.92v.5m-19.89 0h-4.97v-.5h4.97v.5m-9.94 0h-14.92v-.5h14.92v.5m-19.89 0H226v-.5h4.97v.5m-9.94 0h-14.91v-.5h14.91v.5m-19.89 0h-4.97v-.5h4.97v.5m-9.94 0h-6.89l-.9-.5h7.79v.5m-7.92 0h-6.99v-.5h6.08l.91.5m-11.97 0h-4.96v-.5h4.96v.5m-9.94 0h-14.91v-.5h14.91v.5m-19.88 0h-4.26c-.06-.03-.11-.07-.18-.11l.05-.39h4.39v.5m-9.94 0h-14.92v-.5h14.92v.5m-20.15 0h-.4l-.39-.15.79.15m-1.8 0h-.25l-.14-.15.39.15m26.91-.06v-.44h.09c-.01.14-.03.27-.05.4-.01.01-.02.03-.04.04m-24.85-.4l-.21-.04h.21v.04" class="D"/><path d="M454.85 66.86h-.62v-.5h.62v.5m-1.12 0h-.49v-.5h.49v.5m-344.38 0h-1.05l.17-.18.11.07c.05-.07.11-.14.17-.21l.46.17.14.15m-1.54 0h-.56a.86.86 0 0 1 .04-.5h.44l.19.18-.21.22.1.1m.11-.32l-.19-.18h.36l-.17.18M49.1 126.78l-.35-.35 4.65-4.66.25.18-.16-.27 32.98-32.96H64.08v-.5h22.88l17.87-17.87.36.35-17.53 17.52h37.46v.5H87.17L49.1 126.78m455.15-38.06h-49.54v-.5h49.54v.5m-375.72-.08l-.05-.05c.03.01.06.01.08.02l-.03.03" class="B"/><path d="M218.99 87.2h-2l.4-.1-33.53-14.54.08-.19-.11.18c-16.41-9.45-34.32-16.01-52.96-19.4a7.04 7.04 0 0 0 1.68 2.56 11.92 11.92 0 0 1 4.62 9.41c0 .42-.02.83-.07 1.24h-.5c.05-.41.07-.82.07-1.24 0-3.53-1.64-6.87-4.43-9.03l.15-.19-.17.18c-.91-.88-1.59-1.97-1.96-3.18l.23-.07-.23-.1.17-.6a21.58 21.58 0 0 0-.76-4.45l.24-.07-.25.04a15.77 15.77 0 0 0-.22-1.16c.14.02.32.03.52.06.07.28.12.56.17.85 18.65 3.48 36.63 9.89 53.28 18.96h-1.04c-16.31-8.78-33.89-15.01-52.12-18.43a20.85 20.85 0 0 1 .66 4.01c18.74 3.4 36.75 9.98 53.24 19.48l-.24.42c-16.44-9.45-34.37-16.01-53.03-19.4-.02.06-.03.13-.06.19 18.71 3.39 36.7 9.96 53.18 19.44v-.36h2.15v.5h-1.85l33.88 14.7c.95-.26 1.9-.55 2.83-.89-11.09-5.48-22.54-10.21-34.26-14.19l.08-.23-.24.03c-.14-1.12-.36-2.23-.68-3.3l-2.63-1.47h1.03l1.93 1.08-.12.22.24-.07c.32 1.08.56 2.2.7 3.32 11.87 4.04 23.46 8.85 34.69 14.42l-.12.22.09.23c-.89.35-1.8.65-2.73.92M129.5 87h-.39a8.49 8.49 0 0 1 .48-2.74 5.17 5.17 0 0 1 2.97-3.7l.1.22-.08-.24 7.25-2.27-30.23-11.41h1.4l29.61 11.18.77-.23.08.23-.06-.23.26-.32c-.01-.82-.4-1.57-1.06-2.05l.28-.4c.8.57 1.27 1.47 1.27 2.45h-.25.25c0 .17-.05.32-.14.45 7.47 1.99 15.05 3.48 22.71 4.45-.34.1-.77.21-1.28.33-7.41-.99-14.75-2.47-21.98-4.42-.19.06-.38.12-.57.17l-.07.18-.23-.09-7.84 2.45c-1.39.63-2.38 1.88-2.68 3.36l-.24-.04.23.08c-.29.83-.45 1.71-.46 2.59h-.1m320.64-.02V66.86h.5v19.66l-.5.46m-278.43-4.42c-.17-.01-.34-.01-.52-.02l-1.99-.11.06-.22-.08.22h-.02a159.15 159.15 0 0 1-32.33-15.24 17.51 17.51 0 0 1-3.78 2.97l-.25-.43c1.37-.8 2.62-1.78 3.71-2.93v.06h.72c10.1 6.22 20.87 11.29 32.1 15.11l2.38.59m-31.65-6.8l-7.85-5-20.81-3.9h.26v-.46l20.69 3.88-.05.24.13-.2 7.9 5.02-.27.42m310.58-9.4h-.5V46.64l.5.41v19.31m-339.19 0h-1.96l.31-.3 1.65.3m71.88-1.83l-.03-.25-.13.22c-8.9-5.2-18.29-9.46-28.02-12.73.3-.03.68-.08 1.14-.14 9.39 3.23 18.45 7.37 27.06 12.39 3.19-.33 6.34-.92 9.42-1.76 9.16-3.31 17.83-7.84 25.76-13.5a4.54 4.54 0 0 0-1.65-2.3h.78c.65.62 1.14 1.42 1.4 2.33l-.25.07.15.2a107.34 107.34 0 0 1-26.03 13.67l-.08-.23.06.24c-3.14.85-6.35 1.45-9.58 1.79m-.06-.49h0" class="D"/><path d="M450.39 88.72H214.16v-.5h235.98v-1.24l.5-.46v1.35l3.09-3.09V66.86h.5v18.02h-.25l.18.18-3.59 3.59-.18-.18v.25m-321.83-.11c-.02-.01-.05-.01-.08-.02l-20.77-21.48.17-.18-.07-.07h.49l-.07.07 20.65 21.37-.32.31m86.02-.47h-.2a181.93 181.93 0 0 1-39.07-4.24l-8.67-.77a145.5 145.5 0 0 1-37.25 5.01v-.24l-.24.02a7.55 7.55 0 0 1-.05-.83c0-.03 0-.06.01-.09h.38.11v.09a10.86 10.86 0 0 0 .02.56c12.05-.07 24.03-1.65 35.68-4.68l-1.86-.25c.51-.12.94-.23 1.28-.33 2.47.32 4.93.58 7.4.78l-2.92-.72v-.02c.65.05 1.34.08 1.99.11.18.01.35.01.52.02 13.97 3.38 28.29 5.09 42.67 5.09h.18a32.51 32.51 0 0 0 2.43-.45h2a33.97 33.97 0 0 1-4.37.94l-.04-.24v.24m-45.4-5.7c-.01 0-.01-.01-.02-.01h.02v.01m285.05-16.08h-.5V49.1l-3.09-3.1v1.05l-.5-.41v-.99H216.53a5.3 5.3 0 0 1 1.13.81h-.78c-.52-.39-1.14-.67-1.8-.81h-.92v-.04a1080.57 1080.57 0 0 0-59.33 5.53l1.46.49-1.14.14a151.06 151.06 0 0 0-25.41-6.14 13.7 13.7 0 0 1 .22.92c-.2-.03-.38-.04-.52-.06-.08-.36-.18-.73-.29-1.09l.24-.07.04-.24c8.29 1.23 16.45 3.15 24.4 5.72l-.01-.05a1102.9 1102.9 0 0 1 60.75-5.68v.08h.03v-.08c.18.02.36.04.53.08h235.26v.25l.18-.18 3.59 3.59-.18.18h.25v17.36m-344.74 0h-1.4l20.44-21.12.35.34-19.34 20c.03 0 .06-.01.09-.01l.06.47.11.02-.31.3m-.25-.16l.08.03.01-.08c-.03.02-.06.03-.09.05" class="B"/><path d="M450.64 66.86h-.5v-.5h.5v.5m-266.33 0h-1.03l-.91-.5h1.04l.9.5m-47.08 0h-.72v-.06c.02-.01.03-.03.04-.04l.05-.4h.5c-.01.13-.03.26-.05.39l.18.11m-25.57 0h-.26l-.79-.15.39.15h-1.4l-.39-.15-.04-.03.32-.32h1.96l.21.04v.46" class="D"/><g class="B"><path d="M454.23 66.86h-.5v-.5h.5v.5m-345.93 0h-.49l-.1-.1.21-.22.12.13-.12-.13.17-.18h1.4l-.32.32.04.03-.46-.17-.17.21-.11-.07-.17.18m-3.47-2.62L86.24 45.65H64.08v-.49h21.66L45.24 4.68l.35-.35 40.85 40.83h38.68v.49H86.94l18.25 18.24-.36.35m399.42-18.59h-49.54v-.49h49.54v.49M70.26 75.75h.5V57.28h-.5v18.47zm.24 10.57l-2.11-10.57h1.87v3.13h.5v-3.13h1.86L70.5 86.32"/><path d="M70.26 78.88h.5v-3.13h-.5v3.13zm2.36-21.6h-4.23l2.12-10.56 2.11 10.56m426.19 18.47h.5V57.28h-.5v18.47zm0 0"/><path d="M499.06 86.32l-2.11-10.57h1.86v3.13h.5v-3.13h1.86l-2.11 10.57"/><path d="M498.81 78.88h.5v-3.13h-.5v3.13zm2.36-21.6h-4.22l2.11-10.56 2.11 10.56M53.4 121.77l-8.47-6.14 3.1-2.87 5.46 8.92-.09.09"/><path d="M53.65 121.95l-.25-.18.09-.09.16.27M44.76 19.48l-3.3-2.64 8.25-6.94-4.95 9.58"/></g><path d="M45.09 15.87c-26.88 24.45-28.83 66.05-4.37 92.9 1.95 2.23 6.04 6.02 8.44 7.78" fill="none" stroke-width=".21" class="E F G"/><g class="B"><path d="M117.27 111.72h59.34v-.5h-59.34v.5zm0 0"/><path d="M117.27 113.75l-10.57-2.11 10.57-2.11v1.69h-7.94v.5h7.94v2.03"/><use href="#C"/><path d="M176.61 113.75v-2.03h4.49v-.5h-4.49v-1.69l10.57 2.11-10.57 2.11"/><path d="M176.61 111.72h4.49v-.5h-4.49v.5zm-59.34 19.23h326.29v-.5H117.27v.5zm0 2.03l-10.57-2.12 10.57-2.11v1.7h-7.94v.5h7.94v2.03"/><use href="#C" y="19.23"/><path d="M443.56 132.98v-2.03h2.71v-.5h-2.71v-1.7l10.56 2.12-10.56 2.11"/><path d="M443.56 130.95h2.71v-.5h-2.71v.5zm0 0"/></g><path d="M107.71 68.3v66.88m79.12-63.34V117m267.61-28.79v47.46" fill="none" stroke-width=".21" class="E F G"/><path d="M17.88 62.68c.3 0 .53.1.7.3.16.18.24.4.24.68 0 .26-.08.47-.24.65-.17.21-.4.31-.7.31s-.54-.1-.71-.31c-.15-.18-.23-.39-.23-.65 0-.27.08-.5.23-.68.17-.2.41-.3.71-.3m0-.59c-.49 0-.89.16-1.17.49-.26.28-.38.64-.38 1.07 0 .41.12.77.38 1.05.28.33.68.49 1.17.49s.88-.16 1.17-.49c.25-.28.38-.64.38-1.05 0-.43-.13-.79-.38-1.07-.29-.33-.68-.49-1.17-.49m-8.27 9.97c-2.42 0-3.87-2.28-3.87-5.34 0-3.4 1.76-5.35 4.14-5.35 1.09 0 2.26.68 2.75 1.57l.44-1.57 2.15.62-1.51 5.57c0 1.23.34 2.18.64 2.2.12 0 .44-.76.57-1.22l1.74 1.04C16.15 71.05 15.24 72 14.2 72c-1 0-1.57-.61-1.79-1.09-.44.66-1.31 1.15-2.8 1.15m.13-8.68c-.96 0-1.85 1.39-1.85 3.4 0 2.03.85 3.34 1.91 3.34.96 0 1.74-1.29 1.68-3.36-.04-2.4-.77-3.38-1.74-3.38" class="B"/><g clip-path="url(#A)" class="H I"><path d="M12.643 62.954c-.494-.893-1.67-1.575-2.752-1.575-2.375 0-4.139 1.951-4.139 5.36 0 3.056 1.458 5.336 3.857 5.336 1.505 0 2.375-.494 2.799-1.152.235.47.8 1.081 1.811 1.081 1.035 0 1.929-.94 2.446-2.421l-1.74-1.034c-.118.47-.447 1.246-.564 1.222-.306-.024-.635-.964-.635-2.21l1.505-5.571-2.164-.611-.423 1.575zm0 0" fill="none"/></g><g clip-path="url(#B)" class="H I"><path d="M9.809 70.128c-1.058 0-1.905-1.316-1.905-3.338 0-1.998.894-3.408 1.858-3.408s1.693.987 1.74 3.385c.047 2.069-.729 3.361-1.693 3.361" fill="none"/></g><text x="49.07" xml:space="preserve" y="71.63" class="C">D</text><text font-size="10" x="59.07" xml:space="preserve" y="73.38">1</text><text x="485.11" xml:space="preserve" y="72.06" class="C">D</text><text x="319.35" xml:space="preserve" y="126.25" class="C">L</text><text x="141.95" xml:space="preserve" y="106.88" class="C">L</text><text font-size="10" x="150.7" xml:space="preserve" y="108.63">1</text></svg>