<svg xmlns="http://www.w3.org/2000/svg" width="400" height="105" xmlns:v="https://vecta.io/nano"><style><![CDATA[.B{stroke-width:.2}.C{fill:none}.D{stroke-linecap:round}.E{stroke-linejoin:round}.F{fill:rgb(0%,0%,0%)}.G{stroke:rgb(0%,0%,0%)}.H{stroke:rgb(12.548828%,8.235168%,7.058716%)}.I{font-size:14px}.J{stroke-miterlimit:10}.K{stroke-width:1.176}]]></style><defs><filter height="100%"  width="100%" x="0%" y="0%"><feColorMatrix in="SourceGraphic" values="0 0 0 0 1 0 0 0 0 1 0 0 0 0 1 0 0 0 1 0"/></filter><clipPath ><path d="M0 0h131v61H0z"/></clipPath><clipPath ><path d="M26 24h477v314H26V24zm0 0"/></clipPath><clipPath ><path d="M26.66 153.1l56.27 183.95 419.25-128.11-56.27-183.95L26.66 153.1zm0 0"/></clipPath><clipPath ><path d="M0 0h524v346H0z"/></clipPath><clipPath id="F"><path d="M144.73-4.75h230v65.96h-230V-4.75zm0 0"/></clipPath><clipPath id="G"><path d="M16.73-4.75h187v66.96h-187V-4.75zm0 0"/></clipPath><path id="H" d="M23.57 24.43h15.12"/><path id="I" d="M43.69 24.43h4.42"/></defs><path d="M54.01 1042.92l-7.2-1.44 7.2-1.44v2.88zm0 0" class="F"/><path d="M357.11 8.39l-3.89-3.89a.49.49 0 0 0-.35-.15h-169.2l.49.66s6.41 8.56-1.51 16.06c0 0-6.79 6.87-17.56-2.31l-3.08-1.96v13.43s9.53 6.54 16.67 13.72l.03.31h174.16c.14 0 .26-.05.35-.14h0l3.89-3.89v-.01a.5.5 0 0 0 .14-.34V8.74c0-.14-.06-.26-.14-.35" fill="rgb(86.66687%,88.627625%,89.804077%)"/><g clip-path="url(#F)" class="C G J K"><path d="M357.104 8.396L353.2 4.494c-.071-.094-.212-.141-.329-.141H183.655l.494.658s6.421 8.556-1.505 16.055c0 0-6.797 6.864-17.568-2.304l-3.081-1.951v13.422s9.549 6.535 16.675 13.728l.024.306h174.178a.53.53 0 0 0 .329-.141h0l3.904-3.902h0c.071-.094.141-.212.141-.329V8.748c0-.141-.071-.259-.141-.353zm0 0"/></g><path d="M162.01 30.23V16.8l3.09 1.96c10.76 9.17 17.55 2.31 17.55 2.31 7.92-7.5 1.51-16.05 1.51-16.05l-.49-.67h-14.94c-.02 0-.04.02-.06.02h-.06l-15.72 3.91c-.34-.38-.71-.7-1.17-.89-.01-.01-.02-.02-.04-.02-.52-.2-1.13-.2-1.67-.2-.52 0-1.03 0-1.45-.16-.47-.17-.91-.58-1.34-.98-.53-.48-1.08-.97-1.75-1.13-.01-.01-.02-.01-.03-.01-.03-.01-.05-.02-.08-.03h-.07s-.01-.01-.02-.01c-.6-.07-1.21.11-1.8.3-.45.14-.91.28-1.31.29h-.02c-.53 0-1.06-.24-1.63-.48-.44-.2-.89-.39-1.37-.5-.03 0-.06 0-.09-.01h-.01c-1.08-.19-2.16.09-3.2.38l-1.02.12c-2.37.24-4.79.25-7.14.26 0 0-.02.01-.03.01-.05 0-.1-.01-.15-.01-1.79 0-3.66.3-5.25.59-3.76.71-7.51 1.61-11.15 2.48l-1.43.34c-.51-.25-.92-.79-1.34-1.31-.51-.66-1.05-1.33-1.79-1.54-.02-.01-.04-.02-.06-.02-.02-.01-.04-.02-.06-.02-.03-.01-.06-.01-.09-.01h-.01c-.56-.09-1.14.07-1.71.23-.48.14-.97.28-1.36.24-.54-.05-1.06-.43-1.6-.83-.43-.31-.87-.64-1.36-.84-1.09-.44-2.26-.23-3.39-.04-.67.07-1.33.16-1.99.24l-1.89.23c-2.36.24-4.78.25-7.13.26-.01 0-.02.01-.03.01-.05 0-.11-.01-.15-.01h-.15c-1.78 0-3.56.3-5.11.59-3.77.71-7.52 1.61-11.15 2.48l-.34.08c-.48-.16-.94-.31-1.35-.54-.44-.26-.86-.62-1.26-.97-.58-.51-1.17-1.02-1.9-1.28-.02-.01-.03-.02-.04-.02-.6-.21-1.26-.22-1.89-.23-.43-.01-.88-.02-1.29-.09-.44-.08-.86-.23-1.3-.4-.61-.22-1.23-.45-1.89-.47h-.02c-.69-.02-1.38.17-2.03.37-.38.11-.78.23-1.16.29-.96.16-1.93.01-2.96-.15h0c-.02-.01-.03 0-.04 0s-.03-.01-.04-.01c-.02 0-.03.01-.05.01h-.04 0l-.15.01c-1.91.21-3.86.35-5.75.47-1.44-.08-2.88 0-4.28.09 0 0-.02 0-.03.01-.03 0-.06.01-.09.02s-.06.03-.09.04c-.03.02-.04.04-.06.05-.03.03-.06.04-.08.07a.3.3 0 0 0-.04.08c-.02.02-.03.05-.04.09 0 .01-.01.02-.01.03l-2.3 10.86-1.13.11c-.82-1.09-1.83-1.96-2.84-2.79h-.01c-.11-.08-.25-.13-.39-.1a.48.48 0 0 0-.39.57c.84 4.49 1.71 9.1 2.85 13.62v15.67c0 .04.02.06.02.08 0 .03.01.06.02.09 0 .01 0 .02.01.03.01.02.02.03.04.05.01.03.03.05.05.08 0 0 .01.01.01.02.02.02.04.02.06.04s.04.03.07.05c.01 0 .02.01.03.02a.17.17 0 0 1 .07.01c.02 0 .04.02.06.02h.06 0c4.5-.07 8.99-1.17 13-3.21 2.81.74 5.92 1.37 8.96 1.99h0c1.04.32 2.13.36 3.19.38 2.36.21 4.76.25 7.12.25l2.15-.01c1.87.37 3.83.58 5.91.6h.33c3.45 0 6.5-.5 9.09-1.49 1.43-.54 2.81-1.27 4.14-1.97l1.08-.58c.5.17 1.03.2 1.54.22.5.02.98.04 1.39.18.5.16.95.52 1.44.89.5.4 1.02.8 1.63 1.01.02.01.03.02.04.02.7.22 1.44.17 2.15.12.37-.03.74-.06 1.1-.04 1 .03 1.94.4 2.94.79h.01c.05.03.09.03.13.04h.04.01l1.29.02h.14l6.7.11c3.09.56 6.27 1.13 9.33 1.13a24.21 24.21 0 0 0 2.1-.1c3.44-.34 6.94-1.63 10.71-3.94.3.02.6.01.9 0 .51-.01 1-.03 1.4.1.48.16.91.56 1.37.97.51.47 1.05.95 1.7 1.13.01 0 .02 0 .03.01.02.01.04.02.07.02a.34.34 0 0 0 .1.01h0c.61.1 1.22-.04 1.81-.2.46-.11.84-.23 1.29-.21.59.01 1.17.29 1.78.59.37.18.75.36 1.16.5.02.01.03.01.04.01.65.21 1.31.27 1.97.27.43 0 .87-.03 1.29-.05.25.02 2 .11 4.87.14h0 .96c4.89 0 12.42-.25 21.03-1.41l1.54 1.56c.09.09.21.15.34.15h.03l-.03-.31c-7.14-7.18-16.67-13.72-16.67-13.72" fill="rgb(85.882568%,86.66687%,87.843323%)"/><g clip-path="url(#G)" class="C G J K"><path d="M162.005 30.228V16.806l3.081 1.951c10.771 9.168 17.545 2.327 17.545 2.327 7.926-7.522 1.529-16.055 1.529-16.055l-.494-.682h-14.934c-.024 0-.047.024-.071.024h-.047L152.88 8.273v.024c-.329-.4-.706-.729-1.176-.893 0-.024 0-.024-.024-.024-.541-.212-1.129-.212-1.67-.212-.517 0-1.035 0-1.458-.141-.47-.188-.917-.588-1.341-.987-.517-.494-1.082-.987-1.74-1.152h-.047c-.024 0-.047-.024-.071-.024h-.071-.024c-.588-.094-1.199.094-1.787.282-.447.141-.917.282-1.317.282h-.024c-.517 0-1.058-.235-1.623-.47-.447-.188-.894-.4-1.364-.494h-.094s0-.024-.024-.024v.024c-1.058-.212-2.14.071-3.199.376-.329.024-.682.071-1.011.118-2.375.235-4.798.235-7.15.259h-.024-.141c-1.787 0-3.669.282-5.268.588-3.739.705-7.502 1.598-11.148 2.468l-1.435.353c-.494-.259-.917-.799-1.317-1.316-.517-.658-1.058-1.316-1.811-1.528-.024-.024-.024-.024-.047-.024-.024-.024-.047-.024-.071-.024-.024-.024-.047 0-.071-.024h-.024 0c-.564-.071-1.152.071-1.717.235-.47.141-.964.282-1.364.235-.517-.047-1.035-.423-1.599-.823-.423-.306-.87-.635-1.341-.846h-.024c-1.082-.423-2.234-.212-3.387-.024l-1.976.235-1.881.235c-2.375.235-4.798.235-7.126.259h-.047-.141-.165c-1.764 0-3.551.306-5.104.588-3.763.705-7.526 1.598-11.148 2.468l-.329.094c-.494-.165-.964-.329-1.364-.541-.447-.259-.847-.611-1.246-.964-.588-.517-1.176-1.034-1.905-1.293h-.024s0-.024-.024-.024c-.611-.212-1.246-.212-1.881-.235-.447 0-.894 0-1.294-.094-.447-.071-.87-.212-1.317-.376-.588-.235-1.223-.447-1.881-.47h-.024c-.682-.024-1.364.165-2.023.353-.376.118-.776.235-1.152.306-.964.141-1.929 0-2.963-.165h0-.047-.024-.071-.024 0l-.165.024c-1.905.212-3.857.329-5.739.47h-.024c-1.411-.094-2.869 0-4.257.094h-.024c-.047 0-.071.024-.094.024-.047 0-.071.024-.094.047-.024 0-.047.024-.071.047l-.071.071c-.024.024-.024.047-.047.071s-.024.047-.047.094v.024l-2.305 10.86-1.129.118c-.823-1.105-1.834-1.951-2.846-2.797h0a.54.54 0 0 0-.4-.094c-.259.047-.423.306-.376.564.847 4.49 1.717 9.097 2.846 13.634v15.655.024c0 .024.024.047.024.071s0 .047.024.071v.047c.024 0 .024.024.047.047 0 .024.024.047.047.071v.024c.024.024.047.024.071.047s.047.024.071.047c0 0 .024 0 .024.024h.071c.024 0 .047.024.071.024h.047 0c4.516-.071 9.008-1.175 13.006-3.197 2.822.729 5.927 1.363 8.961 1.975h0c1.035.329 2.117.353 3.199.376 2.352.212 4.751.259 7.103.259l2.164-.024h.024a31.11 31.11 0 0 0 5.88.611h.329c3.457 0 6.515-.494 9.102-1.481 1.435-.564 2.799-1.293 4.139-1.975l1.082-.588c.494.165 1.011.212 1.529.235.494 0 .988.024 1.388.165.494.165.964.517 1.435.893.517.4 1.035.799 1.646 1.011.024 0 .024.024.047.024.682.212 1.411.165 2.14.118.376-.024.729-.071 1.105-.047.988.047 1.929.4 2.94.799h0c.047.024.094.024.141.024.024 0 .024.024.024.024h.024 1.27.141l6.703.118c3.104.564 6.279 1.128 9.337 1.128.706 0 1.411-.024 2.117-.094 3.434-.353 6.914-1.622 10.701-3.949a5.67 5.67 0 0 0 .894 0c.517 0 1.011-.024 1.411.094.47.165.894.564 1.364.987.517.47 1.035.94 1.693 1.128h.047c0 .024.024.024.047.024.024.024.071 0 .094.024h.024c.588.094 1.199-.047 1.811-.212.447-.118.823-.235 1.294-.212.564.024 1.152.282 1.764.588.376.188.753.376 1.152.494.024 0 .024 0 .024.024h.024c.659.212 1.317.259 1.976.259.423 0 .87-.024 1.294-.047.235.024 1.999.118 4.868.141h0 .964a161.81 161.81 0 0 0 21.026-1.41l1.529 1.575a.48.48 0 0 0 .353.141h.024l-.024-.306c-7.15-7.193-16.675-13.728-16.675-13.728zm0 0"/></g><g class="C D E"><g class="G B"><g class="J"><path d="M62.54 39.53l1.01.59c1.86 1.03 3.81 1.97 5.83 2.61 2.66.85 5.48 1.2 8.33 1.22 3.15.05 6.35-.35 9.24-1.46 1.41-.54 2.73-1.25 4.07-1.95l1.27-.66M41.55 6.1c1.74-.12 3.5-.24 5.22 0 2.47.33 4.89 1.36 7.13 2.63l1.01.61m-17.47 8.14l17.59-1.72m.01.02l1.55-2.66M41.22 8.03l6.77 1.57c2.94.92 5.76 2.21 8.61 3.5M38.51 32.38l1.46 4.47m22.57 6.27c3.08.26 6.16.26 9.24.24m-31.81-6.51l8.49 3.34c3.25.99 7.1 1.76 10.96 2.54M85.7 5.87c2.52.02 5.03.68 7.41 1.65a31 31 0 0 1 3.86 1.95m-28.04-.42c.16-.05.33-.07.47-.12m80.54 32.74c.09.05.19.07.26.12l4.61 1.86M127.49 5.87c2.52.02 5.03.68 7.38 1.65l1.03.47m-26.28 1.32l1.6-.38m241.65 35.02V5.02M162.01 17.53v12.69m2.89-11.61c3.97 3.08 8.02 5.52 12.39 4.87 2.99-.45 6.11-2.37 7.76-5.1 1.6-2.63 1.83-5.99 1.13-8.89-.42-1.62-1.11-3.1-2.02-4.47m-22.15 25.21c4.66 3.38 9.31 6.79 13.76 10.84.61.56 1.22 1.15 2.92 2.89M37.61 29.19V17.74"/><path d="M40.72 33.51V22.58m3.12 12.2V23.99m3.12 13.97v-9.38m3.11 10.1v-8.77m3.12 11.21v-7m3.12 7.41v-6.3m3.11 7.51V38.6m3.12 4.52v-3.6M54.9 9.35V5.68m-3.11 1.98V5.52m6.23 5.34V5.01M61.13 14V5.89m3.12 9.9V6.2m3.12 10.61V8.42m3.11 13.31V9.69m3.12 16.08V12.98m3.12 14.27V15.03m3.11 16.26V19.14m3.12 13.32V21.08m3.11 15V25.1m3.12 11.87v-9.83m3.12 12.74v-8.72m3.11 9.17v-7.26m3.12 9.18v-5.74m3.11 5.79v-4.37m3.12 5.21v-3.03"/><path d="M79.83 31.29V19.14m-12.46.63V8.42m29.6 1.05V5.14m3.12 5.32V5.15m3.11 8.84V6.84m3.12 8.37V6.37m3.11 13.46V9.23m3.12 12.34V9.86m3.12 16.2V14.14m3.11 13.08V15.04m3.12 16.63V19.73m3.12 12.87V20.75m3.11 15.68V25.62m3.12 11.37V26.98m3.11 13.24v-8.25m3.12 8.52v-7.48m3.12 9.59v-5.5m3.11 5.09v-4.16m3.12 5.29v-2.14m3.11 2.33v-1.83"/><path d="M106.32 15.21V6.37m29.6 1.61V5.49m3.12 3.29V5.11m3.11 6.62V6.11m3.12 6.83V5.51m3.12 11.54v-9.4m3.11 11.11V7.99m3.12 15.27V11.37m3.11 13.05V12.57M67.37 8.41c.99.56 2.19.71 3.13 1.27 1.22.78 1.95 2.33 3.1 3.31.96.8 2.21 1.22 3.1 2.02 1.27 1.13 1.83 3.01 3.13 4.11.92.78 2.19 1.18 3.13 1.95 1.27 1.08 1.86 2.91 3.1 4.02.92.8 2.19 1.22 3.1 2.05 1.27 1.1 1.86 2.94 3.13 4.02.92.78 2.16 1.15 3.13 1.9 1.18.99 1.88 2.59 3.1 3.46.89.63 2.09.85 3.1 1.39 1.2.63 2.12 1.67 4.35 2.77 1.9.92 4.7 1.88 6.94 2.59M54.9 9.35c1.06.47 2.21.82 3.13 1.5 1.15.87 1.9 2.28 3.1 3.13.96.71 2.21 1.06 3.13 1.81 1.25 1.06 1.83 2.91 3.1 3.97.92.78 2.21 1.15 3.1 1.95 1.27 1.13 1.76 3.1 3.13 4.04.92.63 2.23.8 3.13 1.48 1.32 1.01 1.72 3.17 3.1 4.04.89.56 2.21.59 3.1 1.18 1.32.85 1.81 2.89 3.13 3.62.89.49 2.16.38 3.1.89 1.25.66 1.9 2.37 3.13 2.89.89.4 2.12.14 3.1.47m14.05-31.09c.94.47 2.26.21 3.13.63 1.43.73 1.65 3.38 3.1 4.28.89.52 2.23.38 3.13.89 1.51.87 1.6 3.71 3.1 4.7.87.56 2.23.49 3.13 1.01 1.53.94 1.62 3.76 3.1 4.87.87.66 2.23.71 3.13 1.36 1.51 1.13 1.55 4 3.1 4.98.87.54 2.21.49 3.13 1.06 1.39.87 1.72 3.24 3.1 4.07.87.54 2.16.45 3.13.94 1.27.68 1.9 2.44 3.1 3.15.85.52 1.98.52 3.13.49"/><path d="M96.97 9.47c1.13.19 2.28.35 3.13.99 1.2.89 1.79 2.73 3.1 3.53.94.59 2.23.63 3.13 1.22 1.46.99 1.72 3.46 3.1 4.63.89.75 2.23.99 3.1 1.74 1.36 1.15 1.65 3.57 3.13 4.49.89.54 2.23.54 3.13 1.15 1.43.99 1.62 3.6 3.1 4.44.87.52 2.21.4 3.1.94 1.39.82 1.74 3.17 3.13 3.83.89.42 2.19.12 3.13.56 1.29.61 1.83 2.7 3.1 3.22.89.35 2.14-.07 3.1.26 1.2.4 2 1.88 3.13 2.12.94.21 2.07-.42 3.13-.4 1.08.02 2.05.78 3.1 1.13.99.31 2.05.26 3.1.19M151.5 8c1.32.49 1.88 2.49 3.13 3.36.89.63 2.14.71 3.1 1.2 1.88 1.01 2.61 2.96 4.28 4.25.8.61 1.81 1.62 2.87 1.81M135.92 7.98c1.13.12 2.26.26 3.13.8 1.15.75 1.88 2.23 3.1 2.96.96.54 2.23.61 3.1 1.2 1.36.92 1.81 3.03 3.13 4.11.92.73 2.23.96 3.13 1.72 1.36 1.13 1.69 3.48 3.1 4.49.85.61 2.12.73 3.1 1.18 2.19.94 3.25 3.36 4.28 5.81M37.61 17.74c1.06 1.65 1.55 3.86 3.13 4.84.92.59 2.23.73 3.1 1.41 1.41 1.08 1.67 3.57 3.1 4.58.89.61 2.23.68 3.13 1.34 1.39.99 1.72 3.29 3.13 4.21.87.56 2.16.56 3.1 1.1 1.29.75 1.93 2.54 3.1 3.38.87.61 2 .75 3.13.92m-24.26-7.95c.75.75 1.53 1.48 2.45 1.95 1.01.47 2.21.61 3.13 1.27 1.18.85 1.83 2.56 3.1 3.17.92.42 2.16.28 3.13.71 1.2.54 1.95 1.95 3.1 2.44.92.4 2.09.21 3.13.42 1.11.21 2.05.87 3.1 1.2.99.33 2.07.35 3.13.38M40.6 37.14c-1.81 1.86-2.94 4.25-3.25 6.82"/></g><path d="M355.17 43.68h0m0-38.8h0M35.66 44.49H4.78"/><path d="M35.66 5.76H4.78m33.1 38.73h0"/><path d="M7 5.76h0"/></g><g class="H"><path d="M162.01 47.64v36.15M36.95 49.12v51.29m319.59-53.04v53.83" class="B"/><path d="M356.4 98.75h0" stroke-width=".25"/></g></g><path d="M9.4 12.67L7.96 5.48l-1.44 7.19H9.4zm0 24.6l-1.44 7.2-1.44-7.2H9.4zm0 0" class="F"/><path d="M7.95 10.49v27.69m34.46 43.53h116.63" class="B C D E H"/><path d="M44.2 83.15L37 81.71l7.2-1.44v2.88zm110.61-2.88l7.2 1.44-7.2 1.44v-2.88zm0 0" class="F"/><path d="M42.41 96.82h311.1" class="B C D E H"/><path d="M44.2 98.26L37 96.82l7.2-1.45v2.89zm305.07-2.89l7.2 1.44-7.2 1.45v-2.89zm0 0" class="F"/><g class="B C G"><use href="#H"/><use href="#H" x="29.53"/><use href="#I"/><use href="#H" x="59.07"/><use href="#I" x="29.54"/><use href="#H" x="88.6"/><use href="#I" x="59.07"/><use href="#H" x="118.14"/><use href="#I" x="88.6"/><use href="#H" x="147.67"/><use href="#I" x="118.14"/><use href="#H" x="177.21"/><use href="#I" x="147.68"/><use href="#H" x="206.74"/><use href="#I" x="177.21"/><use href="#H" x="236.28"/><use href="#I" x="206.75"/><use href="#H" x="265.81"/><use href="#I" x="236.28"/><use href="#H" x="295.35"/><use href="#I" x="265.81"/><use href="#H" x="324.88"/><use href="#I" x="295.35"/></g><g transform="rotate(180 379.78 24.455)"><g class="B C D E G"><path d="M395.22 45.11h-30.88M395.22 4.1h-30.88"/><path d="M366.56 4.1h0"/></g><path d="M368.96 11.42l-1.44-7.61-1.44 7.61h2.88zm0 26.05l-1.44 7.62-1.44-7.62h2.88zm0 0" class="F"/><path d="M367.51 9.1v29.32" class="B C D E H"/></g><text x="378.89" xml:space="preserve" y="29.48" class="I">D</text><text x="193.86" xml:space="preserve" y="92.48" class="I">L</text><text x="93.35" xml:space="preserve" y="77.23" class="I">L</text><text font-size="10" x="101.35" xml:space="preserve" y="78.98">1</text><text x="10.57" xml:space="preserve" y="32.86" class="I">D</text><text font-size="10" x="20.57" xml:space="preserve" y="34.61">1</text></svg>