<svg xmlns="http://www.w3.org/2000/svg" width="400" height="110" xmlns:v="https://vecta.io/nano"><style><![CDATA[.B{fill:none}.C{stroke-width:.2}.D{stroke-linecap:round}.E{stroke-linejoin:round}.F{stroke:rgb(0%,0%,0%)}.G{stroke-miterlimit:10}.H{stroke:rgb(12.548828%,8.235168%,7.058716%)}.I{font-size:14px}.J{stroke-width:1.176}.K{fill:rgb(0%,0%,0%)}.L{fill:rgb(70.980835%,71.372986%,71.372986%)}]]></style><defs><filter height="100%"  width="100%" x="0%" y="0%"><feColorMatrix in="SourceGraphic" values="0 0 0 0 1 0 0 0 0 1 0 0 0 0 1 0 0 0 1 0"/></filter><clipPath ><path d="M0 0h131v61H0z"/></clipPath><clipPath ><path d="M26 24h477v314H26V24zm0 0"/></clipPath><clipPath ><path d="M26.66 153.1l56.27 183.95 419.25-128.11-56.27-183.95L26.66 153.1zm0 0"/></clipPath><clipPath ><path d="M0 0h524v346H0z"/></clipPath><clipPath id="F"><path d="M120.94-9.07h81v89.59h-81V-9.07zm0 0"/></clipPath><clipPath id="G"><path d="M136.94-9.07h245v73.59h-245V-9.07zm0 0"/></clipPath><clipPath id="H"><path d="M19.94-9.07h154v73.59h-154V-9.07zm0 0"/></clipPath><clipPath id="I"><path d="M136.94-9.07h45v69.59h-45V-9.07zm0 0"/></clipPath><path id="J" d="M147.28 29.4c.19.24.38.47.54.75l.47.8a3.11 3.11 0 0 0 .54.49"/><path id="K" d="M98.96 45.58l1.34.87c.24.16.49.35.73.56l.33.26"/><path id="L" d="M23.97 26.42h15.52"/><path id="M" d="M44.62 26.42h4.54"/></defs><path d="M160.39 47.12l-5.18-3.01c0-.01-.36-.38-.59-.62l-.02-5.8c1.82 1.48 3.73 2.22 5.68 2.22 3.12 0 5.18-1.91 5.27-2l.23-.22.01-.32c.14-13.2-7.22-19.97-8.89-21.33l.21-8.35c1.78-.72 3.61-1.45 5.43-2.08.74-.25 1.47-.49 2.21-.71h196.46l4.09 4.08v34.05l-4.09 4.09H160.39zm0 0" fill="rgb(86.66687%,88.627625%,89.804077%)"/><path d="M157.34 7.85l7.54-2.8 3.24-.01v41.84h-7.63l-5.79-3.4-.01-5.41-.01-1.22 1.76 1.72 2.17 1.09 2.31.63 1.88-.63 1.7-.89 1.03-1.17v-1.88l-.04-2-.66-3.29-.65-3.57-1.75-3.61-2.78-4.1-2.35-3.07-.43-3.22.47-5.01zm0 0" class="L"/><g clip-path="url(#F)" class="B G"><path d="M157.333 7.864l7.526-2.797 3.246-.024v41.842h-7.62l-5.786-3.385-.024-5.407v-1.222l1.764 1.716 2.164 1.105 2.305.611 1.881-.611 1.693-.893 1.035-1.175v-1.881l-.024-1.998-.682-3.291-.635-3.573-1.764-3.62-2.775-4.09-2.352-3.079-.423-3.22.47-5.007zm0 0" stroke="rgb(70.980835%,71.372986%,71.372986%)" stroke-width="2.351"/></g><path d="M133.12 47.16c-.44-.25-.9-.48-1.46-.48a3.38 3.38 0 0 0-.73.1c-.21.05-.4.09-.58.09l-.09-.03h-.25c-.09-.03-.31-.18-.53-.33-.27-.19-.59-.4-.94-.47l-.25-.02c-.23 0-.45.05-.64.1-.16.03-.32.07-.48.07l-.24-.04-.03.01c-.12-.04-.34-.2-.55-.36-.25-.19-.54-.4-.87-.49l-.1-.03-.32-.03c-.14 0-.3.02-.46.04l-.37.03c-.1 0-.19-.01-.27-.04l-.25-.17c-.1-.07-.25-.2-.39-.33-.27-.26-.56-.54-.92-.65l-.11-.04-.32-.03c-.17 0-.36.03-.58.07-.16.02-.32.05-.5.05a2.73 2.73 0 0 1-.41-.07c-.5-.68-1.01-1.3-1.65-1.52-.25-.08-.51-.09-.75-.11-.23-.01-.44-.02-.63-.1l-.26-.11-5.95 1.82c-6.73 2.07-9.46 2.92-12.25 3.05l-.21.02h-1.37c-.42-.25-.9-.48-1.45-.48a3.38 3.38 0 0 0-.73.1c-.21.05-.4.09-.59.09l-.08-.01-.01-.02h-.24c-.1-.03-.33-.19-.52-.33-.28-.19-.6-.4-.94-.47l-.26-.02c-.24 0-.46.05-.65.1-.14.03-.31.07-.46.07l-.13-.02h-.05c-.22-.05-.44-.21-.65-.37-.25-.19-.54-.4-.87-.49l-.1-.03-.32-.03c-.15 0-.3.02-.46.04a2.64 2.64 0 0 1-.29.02 1.2 1.2 0 0 1-.28-.03c-.24-.07-.43-.23-.63-.43l-.31-.29-.76.2c-4.42 1.17-8.99 2.38-13.5 2.38-.32 0-.64-.01-.96-.02-1.44-.06-2.99-.27-4.61-.63l-.15-.03-.16.02c-1.5.3-3.2.63-4.82.64-.4-.24-.94-.49-1.52-.5-.27.01-.51.06-.73.11-.18.05-.38.09-.56.09l-.22-.02c-.19-.03-.41-.18-.64-.32-.28-.18-.56-.36-.89-.44l-.07-.02-.27-.01c-.16 0-.34.02-.52.05-.15.02-.28.04-.43.04l-.11-.01-.02-.02h-.21c-.1-.04-.32-.18-.55-.34-.29-.19-.57-.39-.91-.46l-.08-.02-.25-.02c-.16 0-.34.03-.52.06-.12.01-.24.03-.35.03-.06 0-.1 0-.15-.01l-.06-.04h-.22c-.07-.04-.29-.23-.5-.41-.28-.25-.58-.5-.94-.59l-.25-.07-.88.39c-1.58.68-3.16 1.36-4.73 1.75-1.73.44-3.48.56-5.15.61l-1.13-1.91.03-6.32c-.98-4.09-1.71-8.17-2.18-12.3l2.18-.04v-3.47l-.23-15.6.03-.18.57-2.15.06.01.11.04c.52.36 1 .65 1.55.65.36-.02.61-.11.84-.18.17-.05.32-.1.45-.12h.22l.15.01c.12.05.31.18.5.33.29.2.59.41.94.48h.18c.33 0 .52-.05.68-.09.19-.05.36-.09.5-.09.33.08.55.3.77.52.27.28.56.57.91.69l.12.04.29.03c.16 0 .35-.03.55-.07a1.76 1.76 0 0 1 .34-.04l.14.04.26.05.02-.01a8.11 8.11 0 0 1 .49.54l.28.32.53.07 16.79-2.59c.45-.11.88-.22 1.27-.22a3.86 3.86 0 0 1 .69.08c.28.05.54.09.78.09a1.59 1.59 0 0 0 .5-.07c.22-.05.43-.15.65-.25.24-.12.5-.24.7-.25h.12c.09.01.25.09.41.17.16.07.28.13.4.17a2.46 2.46 0 0 0 .5.1l.28.04.28-.14c.35-.22.72-.44 1.04-.44l.11.01h.16a9.24 9.24 0 0 0 .45.25c.32.18.63.35.99.37h.01c.33 0 .59-.1.81-.18.24-.09.42-.15.58-.15.27.04.48.21.71.39.29.23.58.46.92.53l.08.02.17.01c.23 0 .45-.06.67-.12.16-.04.32-.09.47-.09.32.08.54.31.76.52.28.28.55.57.9.69l.12.04.31.02c.14 0 .3-.02.47-.04a2.08 2.08 0 0 1 .41-.05c.41.12.63.4.85.67l.28.35.5.01 16.39-2.53c.44-.11.87-.22 1.28-.22.28.01.48.04.67.08.28.05.54.09.78.09a1.7 1.7 0 0 0 .51-.07c.21-.05.43-.15.64-.25.24-.12.52-.25.73-.25h.1c.09.02.25.09.4.17a3.95 3.95 0 0 0 .4.17 2.71 2.71 0 0 0 .51.1l.27.05.28-.15c.31-.2.67-.41.98-.43l.33.02c.11.05.28.14.45.23.31.17.63.35.99.37h.01a1.93 1.93 0 0 0 .8-.18c.25-.08.43-.15.59-.15.27.04.49.21.72.39.29.23.57.46.91.53l.08.02.18.01c.22 0 .44-.06.66-.12.18-.04.34-.09.47-.09.32.08.55.31.77.52.27.28.55.56.89.68l.12.05.31.02c.14 0 .3-.02.47-.04.16-.03.28-.05.42-.05.41.12.63.4.85.67.15.19.29.35.43.49l.35.36 1.02-.4c2.35-.93 4.76-1.89 7.21-2.61 1.01-.3 2.33-.64 3.64-.72.22-.02.45-.03.68-.03 1.28 0 2.7.24 4.33.72l.28.09.18-.09a9.45 9.45 0 0 0 .78.04c.28 0 .54-.02.77-.08.21-.05.41-.12.61-.19.32-.11.59-.22.87-.22h.01c.2 0 .36.04.54.08.32.08.56.13.82.13.48-.04.73-.15.97-.25.26-.11.49-.2.7-.2h.09c.16.03.36.12.55.21.29.13.6.28.94.29.37-.03.65-.13.9-.23.22-.09.41-.16.59-.16h.08c.15.01.38.15.61.28.28.16.55.32.86.37l.25.02c.22 0 .43-.03.64-.08.13-.03.3-.06.45-.06l.03.02h.25c.11.03.33.21.57.39.27.2.54.4.85.5a1.96 1.96 0 0 0 .57.08l.63-.03a1.06 1.06 0 0 1 .34.05c.24.08.49.31.76.54.25.23.48.43.73.57.3.16 2.13-.28 2.41-.25l-.21 9.47.23.19c.08.06 8.1 6.77 8.06 20.36-.55.59-2.4 2.39-4.71 2.39-1.85 0-3.64-1.15-5.32-3.42l-1.38-1.87.03 8.24a3.14 3.14 0 0 0-.37-.18c-.26-.08-.52-.09-.75-.11-.11 0-.49-.03-.49-.03l-5.54 1.69c-6.58 2.02-9.31 2.87-12.1 3l-.2.02h-1.13-.24zm0 0" class="L"/><g class="B D E"><g class="F"><g stroke-width=".22" class="G"><path d="M39.25 45.25v-6.51m81.58-30.47l.8-.31 7.24-2.63c1.22-.35 2.47-.66 3.72-.73 1.79-.12 3.62.24 5.41.78m10.8 35.47h.02M85.71 7.89l1.11-.16 15.52-2.4M64.76 46.16c2.45.8 4.94 1.27 7.41 1.36 4.87.21 9.71-1.08 14.56-2.35.19-.07.38-.12.56-.16"/><path d="M62.44 47.53c1.65-.02 3.29-.33 4.92-.66m-15.88-2.23l-.75.33c-1.6.68-3.17 1.36-4.77 1.76-1.79.47-3.62.59-5.43.63m-.54-24.91l6.63.05m.01-.01L40 14.45m-.1-4.59l.12 4.58m-.81 5.98l.78 2.02m0 .01l-.68 3.64m-2.28.04l7.36-.12"/><path d="M44.39 26.02l2.23-3.53m-7.6-15.25l.26 18.85m-2.25.04c.49 4.33 1.22 8.53 2.21 12.6m.01.01l-.73-11.17m1.49-13.12l-.8 5.97m117.23-3.69v-9.1M39.25 45.25l1.27 2.12m-.81-42.7l.49 4.4m-1.18-1.83l.87 2.61m.33-.8l-.31.8"/><path d="M39.71 4.67l-.68 2.56m3.96 33.57c-1.58.47-2.96 2.12-3.74 4.44"/><path d="M40.22 9.05V4.7m3.09 5.85V5.1m3.09 7.76v-7.1m-1.55 6.53V5.92m-3.09 4.19V5.39m6.19 9.25V6.95m1.54 8.35V6.93m1.55 10.33V8.3m1.55 9.7V8.6m1.54 11.51V10.05m1.55 10.76V10.66m1.54 12.39v-10.7m1.55 11.61V13.01m1.54 12.98V14.87m1.55 11.83V15.6m1.55 13.24V17.63m1.54 11.81V18.39m1.55 13.16V20.43m1.54 11.76V21.28m1.55 12.97V23.46m1.55 11.47V24.21m1.54 12.67v-10.6m1.55 11.19v-10.3m1.54 12.05V29.16m1.55 10.48v-9.52m1.55 11.13v-9.14m1.54 9.43v-8.56m1.55 10.03v-8.13m1.55 8.31v-7.48m1.54 8.77v-6.91m1.55 6.95V38.2m1.54 7.46v-5.81m1.55 5.85v-5.29m1.54 6.17v-4.72m1.55 4.59v-4.07m1.55 4.88v-3.55m1.54 3.38v-2.96m1.55 3.44v-2.44m1.54 2.44v-2"/><path d="M40.22 4.72c.52.35 1.01.68 1.55.66.52-.02 1.03-.38 1.55-.28.52.09 1.01.73 1.53.82s1.06-.31 1.55-.14c.54.16.99 1.01 1.55 1.18.49.19 1.06-.19 1.53-.02.56.21 1.01 1.1 1.55 1.39.49.26 1.06.05 1.55.28.54.26.99 1.08 1.55 1.46.49.33 1.06.26 1.53.59.56.4.99 1.32 1.55 1.72.49.35 1.08.31 1.55.66.56.42.96 1.41 1.55 1.86.47.38 1.06.35 1.53.75.59.47.99 1.5 1.55 2 .47.38 1.08.38 1.55.78.56.47.96 1.53 1.55 2.02.47.42 1.06.45 1.53.87.59.52.96 1.67 1.55 2.16.47.4 1.08.4 1.55.78.59.47.96 1.55 1.55 2.07.47.42 1.06.47 1.53.89.59.47.99 1.46 1.55 1.97.49.47 1.13.56 1.65 1.03.52.49.92 1.43 1.43 1.9.49.42 1.08.47 1.55.89.56.47.99 1.41 1.55 1.88.47.4 1.06.42 1.55.82.56.49.96 1.46 1.53 1.86.49.35 1.06.31 1.55.63.56.4.99 1.29 1.55 1.65.47.33 1.06.28 1.55.59.54.33.99 1.1 1.53 1.43.49.31 1.06.26 1.55.54.54.31 1.01 1.01 1.55 1.32.47.26 1.03.21 1.55.4.52.21 1.01.73 1.53 1.01.49.28 1.03.38 1.55.45M39.71 4.67l.49.05m.02 4.33c.49.45.99.87 1.55 1.06.52.16 1.08.09 1.55.42.54.4.96 1.36 1.53 1.76.49.33 1.08.24 1.55.56.56.38.99 1.36 1.55 1.79.47.35 1.06.28 1.53.66.59.42.99 1.5 1.55 1.95.49.4 1.08.35 1.55.75.59.49.96 1.62 1.55 2.09.47.38 1.06.33 1.53.71.61.49.96 1.69 1.55 2.23.47.47 1.08.49 1.55.92.56.52.96 1.57 1.55 2.02.47.38 1.06.33 1.53.73.59.49.96 1.67 1.55 2.12.47.38 1.08.26 1.55.61.59.47.96 1.65 1.55 2.12.47.38 1.06.28 1.53.63.59.45.96 1.6 1.55 2.07.47.38 1.08.31 1.55.68.56.45.96 1.53 1.55 1.95.47.35 1.06.26 1.53.59.56.4.99 1.39 1.55 1.74.47.31 1.06.12 1.55.42.54.35.99 1.32 1.53 1.62.49.26 1.06.02 1.55.28.56.28.99 1.2 1.55 1.46.47.24 1.06-.02 1.55.19.54.26.99 1.08 1.53 1.29.49.19 1.06-.12 1.55.05.54.16 1.01.94 1.55 1.13.49.19 1.03-.09 1.55.05s1.01.78 1.53.89c.49.09 1.06-.24 1.55-.14.54.09 1.03.66 1.55.8.49.14 1.03-.14 1.55-.16s1.03.24 1.53.47m.05.01l1.55-.02c3.57-.16 7.06-1.48 18.2-4.84m-7-34.51V4.6"/><path d="M108.63 7.88v-2.7m-1.55 1.58V4.69m-1.54 1.78V5.22m6.18 4.41v-4.4m1.55 4.86V4.92m1.54 6.8v-5.9m1.55 6.32V5.68m1.54 8.42V6.86m1.55 7.81V6.89m1.55 9.83V8.38m1.54 8.88V8.45m1.55 11.04V9.85m1.54 10.4v-9.9m1.55 12v-10.3m1.54 10.88V12.54m1.55 12.7V14.59m1.55 11.55V15m1.54 13.09V17.14m1.55 11.72V17.62m1.54 13.26V19.71M138 31.53V20.41m1.55 13.21V22.41m1.54 11.96V23.35m1.55 12.96V25.54m1.54 11.22V26.35m1.55 12.42V28.69m1.55 10.51v-9.8m1.54 11.46v-9.4m1.55 9.73v-8.74m1.54 10.25v-8.25"/><path d="M108.63 5.18c.52-.33 1.03-.66 1.55-.59.52.09 1.01.61 1.55.63.49.02 1.03-.42 1.53-.31.54.09 1.01.8 1.55.89.52.12 1.06-.28 1.55-.14.54.16.99 1.01 1.53 1.2.52.16 1.08-.19 1.55 0 .56.24.99 1.25 1.55 1.5.47.21 1.06-.09 1.55.07.54.21.99 1.06 1.53 1.39.49.31 1.08.21 1.55.54.56.35.99 1.32 1.55 1.67.49.31 1.08.16 1.55.52.56.45.94 1.65 1.53 2.02.47.31 1.08.09 1.55.42.59.4.96 1.69 1.55 2.14.47.33 1.08.16 1.53.49.61.4.96 1.6 1.55 2.09.47.4 1.08.33 1.55.68.59.45.99 1.48 1.55 2 .47.42 1.08.47 1.55.92.56.56.94 1.74 1.53 2.23.47.38 1.11.33 1.55.73.66.54 1.01 1.88 1.6 2.44.45.42 1.01.42 1.48.66m1.58 2.08l.38.26.4.21.4.21.38.31.19.21.19.26.38.56.38.54.21.24.19.21.38.24.4.19.4.16.38.21.21.16.21.19.4.47.38.52.35.56"/><use href="#J"/><path d="M108.63 5.18c-.21-.02-.4-.05-.61-.12-.33-.12-.63-.33-.94-.38-.52-.05-1.01.4-1.55.54-.56.14-1.18-.09-1.76-.12-.47-.02-.94.09-1.43.21m3.2 1.16c.54 0 1.06 0 1.55.28.52.31.99.92 1.53 1.13.52.21 1.08.05 1.55.31.54.31 1.01 1.13 1.55 1.43.49.28 1.06.16 1.55.47.54.35.96 1.29 1.53 1.62.49.28 1.08.12 1.55.42.59.4.96 1.55 1.55 1.97.47.33 1.08.21 1.55.56.56.42.94 1.62 1.53 2.05.47.33 1.08.19 1.55.54.61.45.96 1.69 1.55 2.23.45.4 1.08.35 1.53.75.59.49.96 1.67 1.55 2.09.47.35 1.08.24 1.55.59.61.47.96 1.72 1.55 2.3.49.52 1.13.54 1.65 1.01.54.47.92 1.41 1.43 1.86.47.38 1.08.38 1.55.78.56.47.96 1.57 1.55 2 .47.38 1.06.31 1.53.66.59.47.96 1.6 1.55 2.09.47.4 1.08.35 1.55.75.56.47.96 1.55 1.55 1.93.47.31 1.06.14 1.53.47.59.4.96 1.6 1.55 2 .47.33 1.06.14 1.55.42.56.35.99 1.32 1.55 1.67.52.33 1.18.09 1.69.4.49.33.89 1.13 1.39 1.43.47.31 1.03.12 1.55.28.56.19 1.06.85 1.53 1.48M105.54 6.47c-1.2-.71-2.47-1.06-3.74-1.06"/><use href="#K"/><path d="M138 5.39v-.12m1.55.79v-.8m1.54 1.03V4.86m1.55 2.34V5.06m1.54 2.57V4.6m1.55 4.18V5.09m1.55 4.26V4.72m1.54 6V5.38m1.55 5.91V5.27m1.54 7.7V6.18m1.55 7.52V6.27m1.55 9.22V7.4"/><path d="M138 5.29c.52.05 1.03.09 1.55-.02.52-.12 1.01-.4 1.53-.42.52 0 1.03.28 1.55.21s1.03-.47 1.55-.45 1.03.49 1.55.49c.52.02 1.03-.42 1.53-.38.52.02 1.03.56 1.55.66.52.09 1.06-.24 1.55-.12.52.12 1.01.73 1.55.92.49.16 1.03-.07 1.53.09.54.19 1.03.85 1.55 1.15.45.24.94.24 1.43.21M138 5.39c.52.28 1.01.56 1.55.68.52.09 1.03.02 1.53.21.54.21 1.03.68 1.55.92.52.21 1.06.19 1.55.42.54.28 1.01.87 1.55 1.15.49.26 1.06.26 1.53.56.54.35 1.01 1.06 1.55 1.36.49.31 1.06.26 1.55.59.56.38.99 1.25 1.55 1.67.47.38 1.06.4 1.53.73.59.4 1.03 1.2 1.55 1.81.45.49.94.87 1.43 1.22M39.25 28.63v-6.11m1.55 17.25v-9.31m1.54 9.64v-8.89m1.55 10.54v-8.42m1.54 8.66V34m1.55 9.46v-7.33m1.55 7.34v-6.91m1.54 8.19v-6.46m1.55 6.37v-5.71m1.54 6.73v-4.94m1.55 4.93v-4.56m1.55 5.37v-3.74m1.54 3.7v-3.43m1.55 4.2v-2.8m1.54 2.62v-2.4m1.55 2.9v-1.72"/><path d="M37.03 26.14c.52.42 1.03.87 1.48 1.43.78.96 1.39 2.35 2.28 2.89.49.31 1.08.33 1.55.75.56.54.94 1.67 1.55 2.12.47.35 1.06.28 1.53.66.59.49.96 1.74 1.55 2.14.47.33 1.06.16 1.55.45.56.33.99 1.29 1.53 1.69.49.38 1.08.31 1.55.68.56.45.96 1.46 1.55 1.81.47.26 1.06.07 1.55.35.56.33.96 1.34 1.55 1.65.47.26 1.03.02 1.53.26.56.28 1.01 1.15 1.55 1.41.47.24 1.03 0 1.55.21.54.21 1.01.92 1.53 1.2.31.14.63.16.96.14m-24.12-7.24c.49.45.99.89 1.55 1.03.52.14 1.06.02 1.53.33.56.38.99 1.36 1.55 1.65.47.26 1.06 0 1.55.26.56.28.99 1.25 1.55 1.46.47.19 1.03-.16 1.53.02.56.19 1.01 1.06 1.55 1.27.49.16 1.03-.21 1.55-.09.54.14 1.01.85 1.55 1.01.49.19 1.03-.12 1.53 0 .54.12 1.03.68 1.55.82.49.12 1.03-.16 1.55-.05.52.12 1.01.66 1.53.78.52.09 1.03-.19 1.55-.19.54-.02 1.03.24 1.55.49m.98-1.55l1.36.19M50.59 7.95l1.48-.24 15.52-2.4m7.85 2.89V4.6m-1.55 3.28v-2.7m-1.54 1.58V4.69M70.8 6.47V5.22m6.19 4.41v-4.4m1.54 4.86V4.92m1.55 6.8v-5.9m1.54 6.32V5.68m1.55 8.42V6.86m1.55 7.81V6.89m1.54 9.83V8.38m1.55 8.88V8.45m1.54 11.04V9.85m1.55 10.4v-9.9m1.55 12v-10.3m1.54 10.88V12.54m1.55 12.7V14.59m1.54 11.55V15m1.55 13.09V17.14m1.55 11.72V17.62m1.54 13.26V19.71m1.55 11.82V20.41m1.54 13.21V22.41m1.55 11.96V23.35m1.55 12.96V25.54m1.54 11.22V26.35M111 38.77V28.69m1.54 10.51v-9.8m1.55 11.46v-9.4m1.55 9.73v-8.74m1.54 10.25v-8.25m1.55 8.53v-7.73m1.54 9.21v-7.38"/><path d="M73.89 5.18c.52-.33 1.03-.66 1.55-.59.52.09 1.01.61 1.55.63.49.02 1.03-.42 1.53-.31.54.09 1.01.8 1.55.89.49.12 1.06-.28 1.55-.14.54.16.99 1.01 1.53 1.2.52.16 1.08-.19 1.55 0 .56.24.99 1.25 1.55 1.5.47.21 1.06-.09 1.55.07.54.21.99 1.06 1.53 1.39.49.31 1.08.21 1.55.54.56.35.99 1.32 1.55 1.67.47.31 1.08.16 1.55.52.56.45.94 1.65 1.53 2.02.47.31 1.08.09 1.55.42.59.4.96 1.69 1.55 2.14.47.33 1.06.16 1.53.49.61.4.99 1.6 1.55 2.09.47.4 1.08.33 1.55.68.59.45.96 1.48 1.55 2 .47.42 1.08.47 1.53.92.59.56.96 1.74 1.55 2.23.47.38 1.11.33 1.58.73.61.54.99 1.88 1.58 2.44.45.42 1.01.42 1.48.66m1.58 2.08l.38.26.4.21.4.21.38.31.21.21.19.26.35.56.38.54.21.24.21.21.35.24.4.19.4.16.38.21.21.16.21.19.4.45.38.49.35.52"/><use href="#J" x="-34.74"/><path d="M73.89 5.18c-.21-.02-.4-.05-.61-.12-.33-.12-.63-.33-.94-.38-.52-.05-1.01.4-1.53.54-.59.14-1.2-.09-1.79-.12-.47-.02-.94.09-1.43.21m3.21 1.16c.54 0 1.06 0 1.55.28.52.31.99.92 1.53 1.13.52.21 1.08.05 1.55.31.54.31 1.01 1.13 1.55 1.43.49.28 1.06.16 1.55.47.54.35.96 1.29 1.53 1.62.49.28 1.08.12 1.55.42.59.4.96 1.55 1.55 1.97.47.33 1.08.21 1.55.56.56.42.94 1.62 1.53 2.05.47.33 1.08.19 1.55.54.61.45.96 1.69 1.55 2.23.47.4 1.08.35 1.53.75.59.49.96 1.67 1.55 2.09.47.35 1.08.24 1.55.59.61.47.96 1.72 1.55 2.3.49.52 1.15.54 1.65 1.01.54.47.92 1.41 1.43 1.86.47.38 1.08.38 1.55.78.56.47.96 1.57 1.55 2 .47.38 1.06.31 1.53.66.59.47.96 1.6 1.55 2.09.47.4 1.08.35 1.55.75.56.47.96 1.55 1.55 1.93.47.31 1.06.14 1.53.47.59.4.96 1.6 1.55 2 .47.33 1.06.14 1.55.42.56.35.99 1.32 1.55 1.67.52.33 1.18.09 1.69.4.49.33.89 1.13 1.39 1.43.47.31 1.06.12 1.55.28.56.19 1.06.85 1.55 1.48M70.8 6.47c-1.2-.71-2.45-1.06-3.72-1.06m58.31 40.29v-5.29m1.55 6.17v-4.72m1.54 4.59v-4.07m1.55 4.88v-3.55m1.54 3.38v-2.96m1.55 3.44v-2.44m1.55 2.44v-2"/><path d="M120.27 37.07c.14.19.31.38.47.49.47.35 1.08.31 1.55.63.56.38.99 1.27 1.55 1.65.47.33 1.06.28 1.55.59.54.33.99 1.08 1.53 1.43.49.28 1.06.24 1.55.52.54.31 1.01 1.01 1.55 1.32.49.28 1.03.21 1.55.42s1.01.71 1.53 1.01c.49.26 1.03.35 1.55.45m-14.38-1.12s.19.09.4.12c.56.09 1.13-.24 1.62-.07.54.19 1.01.96 1.55 1.15.49.19 1.03-.09 1.55.05s1.01.75 1.53.87 1.03-.24 1.55-.14c.54.12 1.03.68 1.55.82.49.12 1.01-.14 1.55-.16.52-.02 1.01.24 1.53.47m.02 0l1.55-.02c3.53-.16 6.94-1.43 17.69-4.68"/><use href="#K" x="35.71"/><path d="M122.08 44.47v-6.39m1.54 7.47v-5.88m237.74 7.86V4.61"/></g><path d="M37.36 47.35H3.49M37.36 4.87H3.49" class="C"/><path d="M39.8 47.35h0m0-42.48h0" stroke-width=".22"/><path d="M5.93 4.87h0" class="C"/></g><path d="M154.68 47.03v41.32M39.05 50.05v55.12m326.61-59.49v60.37" class="H C"/></g><g clip-path="url(#G)" class="B F G J"><path d="M360.612 4.244H164.868c-.047 0-.071 0-.094.024l-2.281.729-5.903 2.28m-2.493 36.435l.87.917c.024 0 .024.024.047.024 0 .024 0 .024.024.024l5.362 3.056c.047.024.118.047.188.047h200.025a.39.39 0 0 0 .282-.118l4.28-4.278a.39.39 0 0 0 .118-.282V8.921a.39.39 0 0 0-.118-.282l-4.28-4.278a.39.39 0 0 0-.282-.118"/></g><g clip-path="url(#H)" class="B F G J"><path d="M133.619 4.224l-.729.024c-1.388.094-2.752.447-3.786.752-2.446.729-4.892 1.692-7.244 2.609l-.541.235-.376-.423c-.282-.353-.564-.705-.941-.87a1.23 1.23 0 0 0-.494-.094c-.188 0-.353.024-.517.047a2.06 2.06 0 0 1-.376.047c-.071 0-.118-.024-.165-.024-.188-.071-.4-.282-.611-.494-.282-.282-.588-.588-.964-.705-.118-.024-.212-.047-.329-.047-.235 0-.47.047-.682.118-.165.047-.329.094-.447.094-.047 0-.071 0-.094-.024-.165-.024-.4-.212-.611-.376-.282-.235-.588-.47-.941-.541h-.071-.024-.141c-.282 0-.564.094-.8.165-.188.071-.376.141-.541.141h-.024c-.188 0-.4-.118-.659-.259s-.517-.306-.823-.353h-.024-.024-.024-.024-.165c-.517 0-.988.282-1.435.541a1.1 1.1 0 0 1-.4-.071.89.89 0 0 1-.306-.141c-.212-.094-.447-.212-.706-.235h-.047-.094c-.376 0-.729.165-1.035.306-.165.094-.329.188-.517.212-.094.047-.212.047-.306.047-.212 0-.423-.047-.659-.071a6.79 6.79 0 0 0-.682-.094h-.118c-.47 0-.941.118-1.388.235L86.441 7.491l-.071-.071c-.282-.353-.564-.705-.941-.87a1.23 1.23 0 0 0-.494-.094c-.188 0-.353.024-.517.047a2.06 2.06 0 0 1-.376.047c-.071 0-.118-.024-.165-.024-.188-.071-.4-.282-.611-.494-.282-.282-.588-.588-.941-.705-.118-.024-.259-.047-.353-.047a1.93 1.93 0 0 0-.659.118c-.165.047-.329.094-.47.094-.047 0-.071 0-.094-.024-.188-.024-.4-.212-.611-.376-.282-.235-.588-.47-.941-.541h-.071-.165c-.282 0-.564.094-.8.165-.188.071-.376.141-.541.141h-.024c-.188 0-.4-.118-.659-.259s-.517-.306-.823-.353h-.024-.024-.024-.024-.165c-.494 0-.988.259-1.435.541a1.1 1.1 0 0 1-.4-.071c-.094-.024-.188-.071-.306-.141-.212-.094-.447-.212-.706-.235h-.047-.094c-.376 0-.706.165-1.035.306-.165.094-.329.188-.517.212-.094.047-.188.047-.306.047-.212 0-.423-.047-.659-.071-.212-.047-.447-.071-.682-.094h-.118c-.47 0-.941.118-1.388.235L51.469 7.538c-.047-.047-.094-.071-.118-.118-.306-.329-.611-.682-.988-.823-.047-.024-.094-.024-.118-.024h-.024c-.118-.024-.235-.047-.353-.047-.165 0-.329.024-.494.047-.141.047-.282.071-.4.071-.047 0-.118-.024-.165-.024-.165-.071-.4-.282-.611-.494-.282-.306-.564-.588-.941-.705-.118-.047-.235-.071-.376-.071-.235 0-.447.071-.659.118-.165.047-.329.094-.447.094h-.094c-.188-.047-.423-.212-.635-.353-.282-.212-.564-.4-.894-.47h-.094 0c-.047-.024-.118-.024-.188-.024-.282 0-.564.094-.823.165-.188.071-.376.141-.541.141h-.071c-.376 0-.776-.282-1.223-.588-.024-.024-.071-.024-.094-.024-.047-.024-.071-.047-.094-.047l-.494-.047h-.024-.047-.024c-.024 0-.047.024-.071.047-.047 0-.071 0-.118.024 0 .024-.024.047-.047.047-.024.047-.047.071-.071.118 0 .024-.024.024-.047.071l-.682 2.539c0 .024.024.047.024.071-.024.024-.024.024-.024.047l.212 15.655v2.703l-1.811.047h-.024 0 0 0c-.071 0-.094.047-.141.071s-.094.024-.118.071h-.024c-.024.024-.024.071-.024.094s-.024.024-.024.047-.047.071-.047.118v.024c.024 0 0 0 0 .024h0c.47 4.278 1.223 8.509 2.211 12.529v6.441c0 .047.024.071.047.094v.094c.024.024 0 .024.024.024l1.246 2.116c.024.024.047.024.071.047l.047.047c.071.047.141.094.235.094h0 .024c1.74-.047 3.622-.165 5.48-.635 1.623-.4 3.246-1.105 4.821-1.787l.635-.282c.188.071.4.259.635.447.259.235.541.47.87.564.024.024.071 0 .118.024h.024c.118.024.259.047.4.047.165 0 .306-.024.447-.047.165-.024.306-.047.423-.047a.4.4 0 0 1 .165.024c.188.047.4.188.635.353.282.188.564.376.894.447.024.024.047 0 .094.024h0c.118.024.235.024.329.024.188 0 .353-.024.517-.047.141-.024.282-.047.423-.047.071 0 .118 0 .188.024.188.047.4.188.635.329.282.165.564.353.894.423h.024.047l.024.024h.024.259c.259 0 .494-.047.729-.094.188-.047.376-.094.541-.094.423 0 .87.212 1.341.447.071.047.118.047.188.047h0c1.646-.024 3.316-.329 4.939-.635 1.576.353 3.175.564 4.704.635.329 0 .659.024.988.024 4.586 0 9.172-1.222 13.641-2.398l.353-.094c.235.235.494.47.8.588.047.024.094.024.141.024h.024c.141.047.306.047.47.047.118 0 .259 0 .376-.024.118 0 .235-.024.353-.024.094 0 .165 0 .212.024.188.047.423.212.635.376.282.212.588.423.941.517h.024.024.024.024c.071 0 .141.024.212.024.235 0 .447-.047.659-.094.165-.047.329-.071.47-.071h.118c.188.047.423.188.635.353.259.165.541.353.87.447h.024.024.024c.024 0 .024.024.024.024.024 0 .024-.024.024-.024.094.024.212.024.306.024.235 0 .47-.047.706-.094.165-.024.353-.071.517-.094h.094c.4 0 .8.235 1.246.447.071.024.141.047.188.047h0 .235c.423 0 .847-.024 1.246-.024.024 0 .047.024.071.024s.024-.024.047-.024c2.869-.141 5.621-.987 12.23-3.032l5.809-1.763c.306.118.611.141.894.165.212 0 .4.024.541.071.447.141.917.752 1.341 1.316 0 .024.024.024.047.024 0 .024.024.024.024.047.047.024.071.047.094.071h.024c.024 0 .235.094.47.141.094.024.188.024.282.024.235 0 .447-.047.635-.071.165-.024.306-.047.447-.047.071 0 .141 0 .188.024.212.047.423.259.635.47.165.165.353.306.541.447 0 0 .024.024.047.024.094.071.188.141.306.188.188.071.376.094.541.094s.306-.024.47-.047c.118 0 .235-.024.353-.024a.65.65 0 0 1 .212.024c.188.047.4.212.611.376.306.212.611.423.941.517h.024.047.024.024c.071 0 .141.024.212.024.235 0 .447-.047.635-.094s.353-.071.494-.071h.094c.212.047.447.188.659.353.259.165.541.353.87.447h.024.024.024c.024 0 .024.024.024.024s0-.024.024-.024c.094.024.188.024.282.024.259 0 .494-.047.729-.094.165-.024.353-.071.517-.094h.071c.423 0 .823.235 1.294.447a.34.34 0 0 0 .165.047h.235c.423 0 .823-.024 1.246-.024.024 0 .024.024.047.024s.047-.024.071-.024c2.869-.141 5.621-.987 12.23-3.032l5.362-1.622c.118 0 .259.024.376.024.188 0 .376.024.541.071.47.141.917.752 1.341 1.316l.024.024m1.67-37.305h-.259c-.329 0-.635-.024-.917-.188-.165-.094-.376-.282-.588-.47-.306-.282-.611-.564-1.011-.682a1.71 1.71 0 0 0-.588-.094c-.118 0-.212 0-.329.024h-.282c-.118 0-.235 0-.329-.047-.188-.047-.4-.212-.635-.376-.282-.212-.588-.447-.941-.541h-.071-.024c-.094 0-.188-.024-.259-.024-.212 0-.423.047-.611.094-.165.024-.329.047-.47.047h-.141c-.165-.024-.376-.141-.588-.282-.282-.165-.611-.353-.988-.376h-.024-.024-.047c-.306 0-.611.118-.87.212-.212.094-.423.165-.588.165-.188 0-.4-.094-.635-.212-.259-.118-.564-.259-.894-.282h-.024-.047c-.353 0-.659.141-.964.259-.212.094-.4.165-.564.188h-.118c-.188 0-.376-.047-.588-.094-.235-.047-.47-.118-.729-.118h-.071c-.376.024-.753.141-1.082.259-.188.071-.376.141-.541.165-.188.071-.4.071-.588.071-.282 0-.541-.024-.823-.047h0-.024 0-.024a.34.34 0 0 0-.165.047c-1.67-.494-3.151-.752-4.516-.752"/></g><g clip-path="url(#I)" class="B F G J"><path d="M156.623 7.164l-.235 9.238s9.055 6.605 8.89 20.944c0 0-1.881 1.787-4.727 1.787-1.834 0-4.069-.729-6.444-3.173l.024 7.828"/></g><path d="M44.17 100h315.64" class="B C D E H"/><path d="M45.95 101.44l-7.2-1.44 7.2-1.44v2.88zm312.27-2.88l7.2 1.43-7.2 1.45v-2.88zm0 0" class="K"/><path d="M44.27 84.16h105.27" class="B C D E H"/><path d="M46.05 85.6l-7.2-1.44 7.2-1.44v2.88zm101.7-2.88l7.2 1.44-7.2 1.44v-2.88zM8.89 12.15l-1.44-7.2-1.44 7.2h2.88zm0 28.01l-1.44 7.2-1.44-7.2h2.88zm0 0" class="K"/><g class="B C"><path d="M7.45 9.96v32.42" class="D E H"/><g class="F"><use href="#L"/><path d="M54.28 26.42H69.8"/><use href="#M"/><use href="#L" x="60.61"/><use href="#M" x="30.3"/><use href="#L" x="90.92"/><use href="#M" x="60.61"/><use href="#L" x="121.22"/><use href="#M" x="90.91"/><use href="#L" x="151.53"/><use href="#M" x="121.22"/><use href="#L" x="181.83"/><use href="#M" x="151.52"/><use href="#L" x="212.13"/><use href="#M" x="181.82"/><use href="#L" x="242.44"/><path d="M256.75 26.42h4.52"/><use href="#L" x="272.74"/><use href="#M" x="242.43"/><use href="#L" x="303.05"/><use href="#M" x="272.74"/><use href="#L" x="333.35"/><use href="#M" x="303.04"/></g></g><g transform="rotate(180 382.181 26.251)"><g class="B C D E F"><path d="M396.5 48.53h-28.64M396.5 3.96h-28.64"/><path d="M369.91 3.96h0"/></g><path d="M372.42 11.59l-1.22-7.56-1.22 7.56h2.44zm0 29.4l-1.22 7.56-1.22-7.56h2.44zm0 0" class="K"/><path d="M371.2 9.3v34.02" class="B C D E H"/></g><text x="10.82" xml:space="preserve" y="35.62" class="I">D</text><text font-size="10" x="20.82" xml:space="preserve" y="37.37">1</text><text x="84.7" xml:space="preserve" y="79.75" class="I">L</text><text font-size="10" x="93.45" xml:space="preserve" y="81.5">1</text><text x="262.57" xml:space="preserve" y="96" class="I">L</text><text x="379.6" xml:space="preserve" y="31.69" class="I">D</text></svg>