<svg xmlns="http://www.w3.org/2000/svg" width="380" height="110" xmlns:v="https://vecta.io/nano"><style><![CDATA[.B{stroke-width:.21}.C{stroke-linecap:round}.D{stroke-linejoin:round}.E{fill:none}.F{stroke:rgb(1.568604%,0%,0%)}.G{stroke-miterlimit:10}.H{fill:rgb(0%,0%,0%)}.I{font-size:14px}.J{stroke:rgb(0%,0%,0%)}]]></style><defs><filter height="100%"  width="100%" x="0%" y="0%"><feColorMatrix in="SourceGraphic" values="0 0 0 0 1 0 0 0 0 1 0 0 0 0 1 0 0 0 1 0"/></filter><clipPath ><path d="M0 0h131v61H0z"/></clipPath><path id="C" d="M374.83 13.97l-1.56-7.8-1.57 7.8h3.13zm0 0"/><path id="D" d="M21.25 30.64h11.12"/><path id="E" d="M43 30.64h11.15"/><path id="F" d="M36.07 30.64h3.25"/></defs><g class="H"><use href="#C"/><path d="M371.7 45.96l1.56 7.8 1.57-7.8h-3.13zm0 0"/></g><path d="M373.27 46.12V11.21" class="B C D E F G"/><g class="H"><use href="#C" x="-366.59"/><path d="M5.11 45.96l1.56 7.8 1.57-7.8H5.11zm0 0"/></g><path d="M6.67 46.12V11.21" class="B C D E F G"/><path d="M44.37 77.23l-7.81 1.57 7.81 1.56v-3.13zm100.96 3.13l7.8-1.56-7.8-1.57v3.13zm0 0" class="H"/><path d="M146.26 78.8H41.6" class="B C D E F G"/><path d="M44.63 99.42l-7.81 1.56 7.81 1.57v-3.13zm294.58 3.13l7.81-1.57-7.81-1.56v3.13zm0 0" class="H"/><g class="B C D E F G"><path d="M341.4 100.99H43.59M350.08 6.18h26.54m-25.29 47.6h25.29M3.58 5.91h29.58M3.58 53.51h28.08m5.22 6.87v43.69"/><path d="M153.28 55.61v26.96m194.21-25.4v46.92"/></g><path d="M346.95 49.3l-3.88 3.88H160.16l-6.08-3.22s-12.72 7.81-40.68-.95c0 0-14.33 6.23-30.44 3.57 0 0-7.62-1.09-19.12-4.02 0 0-9.58 5.76-23.33 4.53 0 0-3.49-.23-3.84-4.08l.54-13.6.71-1.27-1.25-5.97.96-3.1-.42-1.17-.27-13.96s-.18-4 6.87-3.32c0 0 11.16-.36 19.88 4.54l3.18-.25s25.22-9.92 46.94.02c0 0 22.04-8.82 39.22-1.4l7.91-2.86h182.13l3.88 3.87V49.3zm0 0" fill="rgb(86.66687%,88.627625%,89.804077%)"/><path d="M41.66 30h0" class="B C D E J"/><path d="M161.72 48.96v3.87h-1.56l-6.08-3.21s-12.72 7.81-40.68-.94c0 0-14.33 6.22-30.44 3.56 0 0-7.62-1.09-19.13-4.02 0 0-9.57 5.76-23.32 4.54 0 0-3.49-.24-3.84-4.08l.54-13.61.71-1.27-1.25-5.98.96-3.09-.42-1.17-.26-13.96s-.19-4 6.86-3.32c0 0 11.16-.36 19.88 4.54l3.17-.25s25.23-9.92 46.95.03c0 0 22.03-8.83 39.22-1.41l7.91-2.87h.78v42.64zm0 0" fill="rgb(70.980835%,71.372986%,71.372986%)"/><g class="E"><g class="C D F G"><path d="M346.95 49.31l-3.88 3.88h-182.9l-6.07-3.22s-12.72 7.8-40.69-.94c0 0-14.35 6.23-30.46 3.55 0 0-7.62-1.08-19.12-4.02 0 0-9.57 5.76-23.33 4.54 0 0-3.48-.24-3.83-4.07l.54-13.61.71-1.27-1.25-5.97.96-3.1-.42-1.18-.26-13.94s-.19-4.02 6.87-3.34c0 0 11.15-.35 19.87 4.54l3.17-.24s25.24-9.92 46.94 0c0 0 22.04-8.81 39.23-1.39l7.9-2.87h182.13l3.88 3.88V49.3zm0 0" stroke-width=".53"/><g class="B"><path d="M36.68 28.11l2.59.75c2.12.85 3.88 2.44 5.71 3.9 2.56 2.02 5.27 3.71 8 5.43l8.8 5.41c3.25 1.83 6.59 3.48 10.02 4.91 2.7 1.1 5.46 2.05 8.28 2.8a53.96 53.96 0 0 0 6.44 1.29c2.16.33 4.35.52 6.54.52 3.17.02 6.37-.35 9.48-.99 3.69-.78 7.29-1.97 10.87-3.17"/><path d="M39.55 31.73l3.62 2.33 8.51 5.62 6.26 3.67c3.97 2.21 8.07 4.25 12.32 5.9 3.69 1.39 7.5 2.49 11.38 3.1 3.86.59 7.78.68 11.71.78"/><path d="M38.54 34.48c4.12 2.73 8.25 5.43 12.58 7.87 5.95 3.34 12.28 6.14 18.89 7.69 2.19.52 4.4.89 6.63 1.25M43.09 16.84c6.21 2.75 12.39 5.52 18.41 8.63 4.44 2.28 8.8 4.75 13.17 7.22 5.1 2.89 10.21 5.74 15.52 8.32 5.06 2.47 10.28 4.65 15.71 6.11 2.73.73 5.53 1.29 8.3 1.83M38.5 8.01c3.67.52 7.34 1.03 10.87 2.07 4.61 1.32 8.96 3.53 13.15 5.92 3.93 2.26 7.69 4.65 11.36 7.19 3.86 2.68 7.6 5.5 11.38 8.27l9.81 6.96c3.43 2.3 6.94 4.49 10.61 6.46 2.99 1.6 6.07 3.03 9.27 4.11 2.82.94 5.71 1.6 8.61 2.26M43.81 6.61c3.88.28 7.76.54 11.48 1.43 5.29 1.27 10.28 3.81 14.98 6.65 3.48 2.09 6.82 4.35 10.09 6.72 4.09 2.99 8.11 6.16 12.14 9.29l7.74 5.92c3.5 2.61 7.08 5.17 10.84 7.5 4.87 2.99 10.02 5.57 15.5 7.22 3.83 1.15 7.86 1.83 11.85 1.79 3.13-.05 6.26-.52 9.29-1.29 2-.49 3.97-1.15 5.97-1.81.12-.02.26-.07.4-.12"/><path d="M39.27 6.94h.78l7.48.31c3.43.45 6.82 1.5 10.07 2.82 4.35 1.76 8.47 4 12.42 6.49 4.63 2.91 9.05 6.16 13.43 9.47l13.17 10.08c3.93 2.91 7.95 5.71 12.16 8.2 3.95 2.33 8.09 4.35 12.39 5.99 2.19.85 4.42 1.57 6.7 2.02 3.22.63 6.54.71 9.85.78M46.99 29.14l-8.87-.66m8.87.66l.82-1.69"/><path d="M47.81 27.46l-4.73-10.62m.01 0l-2.59-2.33m.01.01l-3.39 7.29m3.39-7.29L38.18 9m0-.01l.33-.99M37.2 24.51l-.52-14.67m.01-.01c.31-.66.63-1.32 1.11-1.86.4-.45.92-.8 1.48-1.03.59-.24 1.27-.28 1.93-.33"/><path d="M38.5 8.01l-.28-.45m25.47 3.54c4.42-.38 8.84-.75 13.19-.28 5.64.59 11.15 2.56 16.39 4.96 7.06 3.2 13.59 7.15 20.01 11.33 5.86 3.78 11.62 7.73 17.69 11.12 5.29 2.94 10.79 5.45 16.23 8.16 4.35 2.16 8.65 4.44 12.96 6.75"/><path d="M66.86 10.85c3.39-.94 6.77-1.9 10.23-2.4 2.61-.38 5.27-.49 7.93-.42 3.53.12 7.06.61 10.49 1.39 5.01 1.13 9.85 2.87 14.51 5.01 4.7 2.14 9.22 4.7 13.59 7.43 4.35 2.73 8.56 5.64 12.86 8.46 3.93 2.61 7.93 5.15 11.97 7.62l11.57 7.03"/><path d="M77.44 8.4l7.41-1.36c2.68-.35 5.39-.47 8.09-.42 4.44.07 8.91.59 13.22 1.69 4 1.01 7.86 2.54 11.59 4.33 3.93 1.86 7.71 4 11.41 6.28 5.36 3.29 10.56 6.89 15.71 10.51l8.51 6.04"/><path d="M86.47 6.85l7.53.09c3.79.31 7.5 1.25 11.15 2.4 5.62 1.81 11.01 4.18 16.11 7.1 2.7 1.55 5.32 3.24 7.93 4.96l23.84 16.08m-39.22-26.61c5.01-1.34 10.04-2.7 15.19-3.6 2.85-.49 5.74-.85 8.61-.66 3.72.21 7.38 1.34 10.94 2.63m-24.84-.88c2.99-.26 5.97-.49 8.96-.31 4.07.28 8.09 1.39 11.99 2.77 3.03 1.1 6 2.35 8.94 3.6"/><path d="M116.08 10.26c5.41-.33 10.82-.66 16.11.02 5.5.75 10.91 2.61 16.11 4.82 3.48 1.46 6.89 3.08 10.28 4.7M136.93 6.57c2.47.02 4.96.05 7.38.45 3.13.47 6.16 1.55 9.17 2.61M36.69 49.73c.31.66.59 1.32 1.06 1.86.49.56 1.15 1.01 1.86 1.25.56.19 1.18.24 1.76.28 3.81.26 7.6 0 11.31-.78 2.85-.59 5.62-1.48 8.33-2.61.94-.38 1.88-.8 2.85-1.22m-24.57-9.83c3.22 1.88 6.42 3.78 9.81 5.43 2.59 1.27 5.24 2.37 8.02 3.1 2.21.59 4.47.94 6.73 1.29.49.07.99.14 1.48.24"/><path d="M36.69 49.73l.52-14.39m2.08 3.34l-2.14-7.24m-.01 0l-.47-3.34"/><path d="M38.54 34.48l-.4.33m.4-.33v-1.41c.02-.54.09-1.18.47-1.32.14-.05.33-.02.54-.02"/><path d="M37.14 31.44l1.58.66m-1.52-7.59l.8.92"/><path d="M38 25.43l-.73 2.82m-.06 7.1l.85-.8m121.96 10.4l-7.5 4.16m.87-13.66c2.38-1.72 4.75-3.43 6.04-5.97.92-1.83 1.29-4.11.8-6.09-.31-1.29-.99-2.44-1.67-3.6m.02.01l2.4-1.93m0 .01l-7.36-3.46m-.13-4.79l7.46-3.03"/><path d="M153.03 35.19v5.55m0-26.57v-4.7M38.18 8.99l-1.48.85"/><path d="M37.03 9.64l.33 11.61m3.38 31.81c-.99-.87-1.95-1.74-2.4-2.89-.47-1.22-.35-2.75.19-3.93 1.06-2.35 3.81-3.27 6.59-4.23m2.54 11.11h0m105.37-11.98h0"/></g></g><g class="J B"><path d="M342.56 6.79v46.47" class="C D"/><use href="#D"/><use href="#E"/><use href="#F"/><use href="#D" x="43.5"/><use href="#F" x="21.75"/><use href="#D" x="65.25"/><use href="#F" x="43.5"/><use href="#E" x="65.24"/><use href="#F" x="65.24"/><use href="#D" x="108.74"/><use href="#F" x="86.99"/><use href="#E" x="108.74"/><use href="#F" x="108.74"/><use href="#D" x="152.24"/><use href="#F" x="130.49"/><use href="#E" x="152.23"/><use href="#F" x="152.23"/><use href="#E" x="173.98"/><use href="#F" x="173.98"/><use href="#D" x="217.48"/><use href="#F" x="195.73"/><use href="#E" x="217.48"/><use href="#F" x="217.48"/><use href="#E" x="239.23"/><use href="#F" x="239.22"/><use href="#D" x="282.72"/><use href="#F" x="260.97"/><use href="#E" x="282.72"/><use href="#F" x="282.72"/><use href="#D" x="326.22"/><use href="#F" x="304.47"/></g></g><text x="10.45" xml:space="preserve" y="42.62" class="I">D</text><text font-size="10" x="20.45" xml:space="preserve" y="44.37">1</text><text x="359.23" xml:space="preserve" y="35.87" class="I">D</text><text x="244.22" xml:space="preserve" y="97.37" class="I">L</text><text x="87.07" xml:space="preserve" y="74.75" class="I">L</text><text font-size="10" x="95.82" xml:space="preserve" y="76.5">1</text><path d="M44.42 65.48L12.67 97.21 1.44 91.77" transform="rotate(334.158 20.051 81.345)" class="B C D E F G"/><path d="M35.814 59.07l1.092-7.885-4.045 6.859 2.952 1.026zm0 0" class="H"/><text x="8.97" xml:space="preserve" y="95.37" class="I">R</text></svg>