<svg xmlns="http://www.w3.org/2000/svg" width="380" height="100" xmlns:v="https://vecta.io/nano"><style><![CDATA[.L{stroke:#000}.M{fill:none}.N{stroke-width:.2}.O{font-family:Serif}.P{text-anchor:middle}.Q{font-size:20px}.R{stroke:rgb(0%,0%,0%)}]]></style><defs><clipPath id="A"><path d="M801.71 378.6h308v58.82h-308V378.6zm0 0"/></clipPath></defs><text font-size="15" x="116.27" xml:space="preserve" y="71.1" class="O P">1</text><text x="105.81" xml:space="preserve" y="69.17" class="O P Q">L</text><text x="369.67" xml:space="preserve" y="36.32" class="O P Q">D</text><text x="193.13" xml:space="preserve" y="85.56" class="O P Q">L</text><path d="M339.68 48.3l-3.34 4.12-197.39.25s-9.2-2.19-17.08-5.39c0 0-16.78.84-27.51.32s-19.95-1.47-19.95-1.47-12.16 6.53-27.98 6.78V31.23l1.77-2.48-1.77-1.66V9.58s17.57.4 32.2 7.43c0 0 22.24-3.1 43.51-2.46 0 0 3.59-1.22 5.3-1.61 1.71-.4 2.27-.37 2.85-1.61.56-1.27 2.47-2.06 4.71-2.26 2.27-.17 11.69-.27 14.14-.25l187.41.05 3.14 2.73v36.71l-.01-.01zm0 0" fill="rgb(70.980835%,71.372986%,71.372986%)" stroke-width=".5" class="R"/><path d="M169.74 8.8l166.78.06 3.15 2.73v36.7l-3.34 4.13-166.59.24" fill="rgb(86.66687%,88.627625%,89.804077%)"/><g class="M"><path d="M169.74 8.8l166.79.05 3.14 2.73v36.71l-3.34 4.12-166.59.25M50.48 25.86l-4.06 1.22 16.9 17.86-.16-3.92c-4.42-9.83-12.68-15.15-12.68-15.15.25-6.46-4.06-16.29-4.06-16.29s21.92 4.62 38.37 12.91c13.51 6.83 23.94 15.22 33.55 19.74 7.67 3.63 16.87 6.85 19.52 7.5l1.12-1.02m-75.82-7.7s8.82 4.67 25.74 6.33l-19.19-1.66c-4.13-.47-15.33-1.64-23.29 4.52m.81-38.97s17.14 4.1 31.17 10.56c15.75 7.25 28.63 19.69 44.23 25.9m13.73 1.61l-.02 2.28m-58.27-34.6s8.26 3.43 15.95 7.67c9.18 5.09 16.47 10.8 25.65 16.12 9.18 5.31 22.53 8.99 22.53 8.99s16.27-9.61 22.93-17.26l-11.98-8.05m11.98 8.05s-9.74-6.56-21.77-8.57c-12.05-2.01-12.61-2.21-17.86-4.57s-17.66-4.77-23.67-4.62m20.33-.2s26.77-2.21 46.45 7.38c0 0-10.57 3.2-23.38 2.46m23.38-2.46S151.78 7.99 132.93 9.45m203.41 42.94V8.83m-292.67.22" stroke-width=".25" class="R"/><g clip-path="url(#A)" class="L"><path d="M51.58 54.05s9.71.2 18.6-4.42c0 0 3.9.69 9.51 1.11 0 0 5.76 1.65 9.87 2.19 0 0 11.15 4.1 25.69-3.48 0 0 2.96.79 10.36 1.12 0 0 9.09 2.28 13.28 2.98 0 0 10.24 2.28 24.26-3.03l9.73 3.53h155.35l3.5-3.88V11.41l-3.5-3.88H170.67l-14.05 1.56s-8.07-2.01-13.15-1.44c-5.07.55-12.16 2.09-12.16 2.09s-8.17 1.24-9.38 1.68c0 0-5.18.31-6.82.68 0 0-11.22-5.96-20.22-4.32L89.03 8.9l-3.49.61s-7.25 1.39-8.1 1.8l-7.03.64s-8.39-4.43-18.84-4.43l.65 20.17-.56.05.54 3.05-.54 3.05.56.02-.65 20.34v-.17l.01.02zm0 0" stroke-width="1.18"/></g><path d="M38.39 30.86h10.12m9.64 0h10.12m-16.42 0h2.96m23.1 0h10.12m-16.42 0h2.96m23.1 0h10.12m-16.42 0h2.96m23.1 0h10.12m-16.42 0h2.96m23.11 0h10.12m-16.42 0h2.96m23.1 0h10.12m-16.42 0h2.96m23.1 0h10.12m-16.42 0h2.96m23.1 0h10.12m-16.42 0h2.96m23.1 0h10.12m-16.42 0h2.96m23.11 0h10.12m-16.42 0h2.96m23.1 0h10.12m-16.42 0h2.96m23.1 0h10.12m-16.42 0h2.96m23.1 0h10.12m-16.42 0h2.96m23.1 0h10.12m-16.42 0h2.96m23.11 0h10.12m-16.42 0h2.96" class="L N"/></g><text font-size="15" x="20.54" xml:space="preserve" y="39.79" class="O P">1</text><text x="10.33" xml:space="preserve" y="37.85" class="O P Q">D</text><path transform="rotate(270 46.352 67.108)" d="M36.7 67.1H56" class="L M N"/><path d="M162.469 74.599l7.08-1.44-7.08-1.44v2.88z"/><path transform="rotate(90 169.3 67.108)" d="M159.55 67.1h19.3" class="L M N"/><path d="M53.323 71.86l-7.08 1.44 7.08 1.44v-2.88z"/><g class="L M N"><path d="M46.35 73.29h117.2"/><path transform="rotate(270 46.352 82.85)" d="M36.7 82.85H56"/></g><path d="M332.921 90.481l7.08-1.44-7.08-1.44v2.88z"/><path transform="rotate(270 339.9 74.95)" d="M322.35 74.95h35.1" class="L M N"/><path d="M53.331 87.603l-7.08 1.44 7.08 1.44v-2.88z"/><g class="L M N"><path d="M334.602 89.043h-282.7"/><path transform="rotate(270 359.561 30.921)" d="M343.71 30.92h31.7"/></g><path d="M358.122 45.684l1.44 7.08 1.44-7.08h-2.88z"/><path d="M343.62 8.67h19.3" class="L M N"/><path d="M360.86 15.65l-1.44-7.08-1.44 7.08h2.88z"/><g class="L M N"><path d="M363.018 52.664h-19.3"/><path transform="rotate(90 27.009 30.641)" d="M11.16 30.64h31.7"/></g><path d="M28.45 16.68L27.01 9.6l-1.44 7.08h2.88z"/><path d="M42.949 52.895h-19.3" class="L M N"/><path d="M25.709 45.914l1.44 7.08 1.44-7.08h-2.88z"/><path d="M23.55 9.7h19.3" class="L M N"/></svg>