<svg xmlns="http://www.w3.org/2000/svg" width="380" height="100" xmlns:v="https://vecta.io/nano"><style><![CDATA[.B{fill:none}.C{stroke-width:.2}.D{stroke:#000333}.E{font-family:Serif}.F{text-anchor:middle}.G{font-size:20px}]]></style><defs><clipPath id="A"><path d="M811.37 358.37h308v58.82h-308v-58.82zm0 0"/></clipPath><path id="B" d="M53.287 70.026l-7.18 1.44 7.18 1.44v-2.88z"/><path id="C" d="M166.18 72.984l7.18-1.44-7.18-1.44v2.88z"/></defs><path d="M46.24 50.04s10.19.19 19.49-4.18c0 0 4.1.65 9.99 1.05 0 0 6.03 1.56 10.34 2.08 0 0 11.7 3.86 26.93-3.31 0 0 3.11.78 10.86 1.08 0 0 9.52 2.16 13.92 2.82 0 0 10.74 2.16 25.44-2.87l10.21 3.33h162.81l3.67-3.67V9.69l-3.67-3.67H171.08l-14.72 1.47s-8.47-1.89-13.78-1.37-12.74 1.98-12.74 1.98-8.57 1.18-9.84 1.6c0 0-5.43.28-7.16.64 0 0-11.74-5.65-21.17-4.08l-6.16 1.05-3.66.58s-7.61 1.32-8.49 1.69l-7.37.62s-8.78-4.18-19.75-4.18l.69 19.09-.59.03.56 2.89-.56 2.89.58.03-.68 19.25v-.16zm0 0" fill="#dde2e5"/><path d="M46.24 50.2l.01-.16h-.01v.16zM173.42 6.02h-2.34L156.37 7.5s-8.48-1.9-13.79-1.38-12.75 1.98-12.75 1.98-8.56 1.18-9.83 1.6l-7.16.64c0 0-11.74-5.65-21.17-4.08l-6.16 1.05-3.66.58s-7.61 1.32-8.49 1.7l-7.37.61s-8.78-4.18-19.75-4.18l.7 19.09-.61.03.57 2.89-.57 2.89.59.03-.67 19.09c.06.01 10.21.17 19.48-4.18 0 0 4.11.65 9.99 1.04 0 0 6.03 1.56 10.34 2.09 0 0 11.7 3.86 26.93-3.31 0 0 3.11.78 10.87 1.08 0 0 9.51 2.16 13.91 2.82 0 0 10.74 2.16 25.44-2.87l10.21 3.33V6.02zm0 0" fill="#b5b6b6"/><g stroke="#000" stroke-linecap="round" stroke-linejoin="round" stroke-miterlimit="10" class="B C"><path d="M336.23 50.04H173.41M336.23 6.02H171.08M339.9 46.37V9.68m-3.67-3.66l3.67 3.67m-3.67 40.35l3.67-3.67m-3.67 3.67V6.01M47.01 28.5l-.78 21.53m.9-24.93l3.29 2.59 5.64 4.37c3.1 2.37 6.23 4.7 9.45 6.91 2.7 1.83 5.48 3.57 8.35 5.08 2.19 1.18 4.44 2.19 6.73 3.1 1.95.78 3.9 1.48 5.93 1.95 2.59.63 5.27.92 7.95.94 2.3.02 4.59-.14 6.84-.54 2.49-.45 4.96-1.2 7.34-2.07 1.46-.54 2.89-1.15 4.33-1.76"/><path d="M49.21 11.72l4.44 1.76c3.5 1.55 6.84 3.5 10.09 5.55 3.29 2.07 6.49 4.23 9.69 6.39l12.02 7.95c2.59 1.69 5.22 3.38 7.9 4.91 2.7 1.55 5.5 2.94 8.37 4.11 2.33.94 4.7 1.76 7.13 2.4 1.36.35 2.75.63 4.14.89a65.25 65.25 0 0 0 5.76.75 174.5 174.5 0 0 0 5.1.33M47.71 8.6l5.83 1.48c2.35.73 4.63 1.65 6.89 2.63l8.91 4.35c3.17 1.74 6.26 3.64 9.31 5.59l9.62 6.21 9.71 6.18c2.45 1.48 4.89 2.94 7.41 4.3a114.92 114.92 0 0 0 5.64 2.87c1.93.92 3.88 1.79 5.88 2.52 2.26.82 4.59 1.46 6.94 2.02 2.45.61 4.92 1.13 7.38 1.65M46.78 6.94l7.43 1.13c2.85.63 5.62 1.6 8.35 2.68a82 82 0 0 1 9.5 4.54l6.66 4.04 7.36 4.72 7.38 5.01 8.07 5.36c3.2 2.07 6.4 4.04 9.71 5.9 2.87 1.62 5.83 3.15 8.89 4.42 1.62.68 3.27 1.29 4.94 1.86 2.05.68 4.09 1.29 6.19 1.79 4.35 1.03 8.82 1.62 13.29 1.67 2.96.02 5.95-.21 8.84-.73 2.94-.54 5.79-1.41 8.65-2.26a3.68 3.68 0 0 1 .54-.16l.16-.05.47-.14M46.24 6.02l7.24.56c2.87.42 5.67 1.15 8.42 2.09 3.62 1.22 7.13 2.77 10.56 4.51 4.54 2.33 8.91 5.01 13.17 7.83 3.74 2.49 7.41 5.12 11.08 7.73 4.59 3.22 9.2 6.44 13.97 9.4 3.46 2.14 7.01 4.14 10.68 5.92 2.61 1.25 5.29 2.42 8.04 3.31s5.55 1.55 8.37 2.19m-91.53.48c2.42-.12 4.82-.24 7.22-.59a39.74 39.74 0 0 0 7.53-1.74c1.6-.56 3.17-1.2 4.75-1.86"/><path d="M51.61 42.01l6.14 1.97 5.53 1.46 2.45.42c3.39.49 6.8.78 10.21 1.06m-24.33-4.91l-3.79-10.37m-1.48-6.5a56.8 56.8 0 0 0 .49 2.54c.28 1.32.63 2.63.99 3.95M65.99 10.2c2.87-.31 5.74-.61 8.58-.63 2.75-.05 5.48.14 8.21.52 3.43.47 6.87 1.22 10.18 2.28 3.97 1.27 7.81 2.94 11.62 4.7 3.25 1.53 6.49 3.1 9.67 4.82 5.5 2.99 10.77 6.39 16.13 9.66 3.53 2.16 7.13 4.28 10.79 6.18a144.81 144.81 0 0 0 6.75 3.27c1.74.8 3.48 1.57 5.27 2.28l3.15 1.2M73.36 9.59c3.62-.82 7.22-1.67 10.91-1.93 2.85-.21 5.76-.09 8.61.31 3.43.49 6.82 1.41 10.07 2.66 3.43 1.32 6.7 2.96 9.85 4.8 3.41 1.95 6.68 4.11 9.88 6.37 3.95 2.75 7.81 5.64 11.74 8.46a232.05 232.05 0 0 0 8.33 5.76c2.05 1.36 4.14 2.68 6.26 3.88 2.42 1.39 4.89 2.63 7.36 3.88"/><path d="M81.31 7.99l9.17-1.2c2.49-.12 4.99-.02 7.46.38 2.85.45 5.62 1.29 8.33 2.33 3.03 1.15 5.97 2.56 8.8 4.14l4.66 2.8c3.46 2.21 6.82 4.63 10.11 7.1l9.31 7 8.91 6.42c1.34.96 2.66 1.93 4.05 2.77 1.36.82 2.82 1.57 4.28 2.3M85.72 7.28l3.72-.68c1.72-.31 3.46-.52 5.22-.56 2.52-.09 5.03.19 7.5.73 1.95.42 3.88.99 5.76 1.65l5.06 2c1.69.75 3.32 1.62 4.94 2.54l7.29 4.54 6.54 4.7 8 6.23 7.01 5.43a179.94 179.94 0 0 0 4.77 3.43l4.84 3.36M47.48 22.26l2.33-2.52m.01.01l4.26 2.68m0 0c.07.68.16 1.36.33 2.05.16.73.45 1.46.73 2.16m.01-.01l-6.82-.59m-1.2-.94l-.8.05m1.15-2.89v3.13m-.55-.28l-.68-19.09m-.01 0l.54.92m0 0l.94 1.65m-.01.01c0 .24 0 .47.09.66.05.12.14.24.24.33.35.38.59.56.85 1.29.14.42.31 1.06.33.85v-.14"/><path d="M49.21 11.72l.45 3.81.16 3.2v1.03M47.24 7.77l.38 14.34m-.81 5.51l7.6 5.69 6.77 4.82 7.13 4.4 6.54 3.13 3.08 1.29c2.61.96 5.36 1.5 8.14 2.05M47.83 31.63l6.94 4.7 7.29 4.47 7.1 3.64c2.21.96 4.47 1.83 6.77 2.49 3.32.94 6.73 1.5 10.11 2.07m26.8-38.66c2.38-.28 4.77-.59 7.15-.63 2.45-.07 4.92.12 7.34.49 2.28.35 4.54.85 6.73 1.53 3.5 1.1 6.84 2.66 10.28 4.02 2.09.85 4.23 1.62 6.37 2.33 3.67 1.22 7.41 2.23 11.12 3.24"/><path d="M119.67 9.71l9.81-1.55 7.1-.49c3.01-.02 6.04.19 9.01.78 3.65.68 7.2 1.9 10.72 3.13M129.83 8.1l8.44-1.27c2.92-.24 5.83-.16 8.73.19 3.15.38 6.26 1.06 9.36 1.76m-21.02-1.62c3.1-.54 6.19-1.08 9.29-1.13 2.3-.05 4.61.19 6.87.54l5.88 1.15 5.13 1.27M51.61 42.01c-1.22.68-2.42 1.36-3.41 2.37-.49.52-.92 1.08-1.15 1.74-.21.59-.28 1.2-.26 1.83.05.71.21 1.39.38 2.09m-.83-19.12l.49-2.54.07-.35m.02 2.92l-.59-.02m110.03 13.55v-3.86m0-29.05V7.5m6.13 1.48c1.41.35 2.82.71 4.07.49 1.79-.28 3.2-1.72 4.52-3.46M156.36 7.5l14.7-1.48m-14.74 5.54l14.21 4.68m.01 0l-8.7 5.08m-.01-.01c2.56 2.91 5.13 5.85 6.4 10.01 1.11 3.62 1.22 8.16-1.32 10.25-1.58 1.29-4.19 1.62-6.33 1.1-1.58-.4-2.89-1.22-4.23-2.07m.01 3.88l17.05 5.57M46.24 6.02v.45m0-.45h.45M339.9 46.37"/></g><g clip-path="url(#A)" class="B"><path d="M46.25 50.04s10.184.188 19.497-4.184c0 0 4.092.658 9.972 1.058 0 0 6.044 1.551 10.348 2.069 0 0 11.689 3.879 26.929-3.291 0 0 3.104.752 10.866 1.058 0 0 9.525 2.163 13.923 2.821 0 0 10.724 2.163 25.423-2.868l10.207 3.338h162.819l3.669-3.667V9.679l-3.669-3.667H171.086l-14.723 1.481s-8.467-1.904-13.782-1.363c-5.315.517-12.747 1.975-12.747 1.975s-8.561 1.175-9.831 1.598c0 0-5.433.282-7.15.635 0 0-11.759-5.642-21.19-4.09l-6.138 1.058-3.669.588s-7.596 1.316-8.49 1.692l-7.361.611S57.209 6.012 46.25 6.012l.682 19.087-.588.047.564 2.891-.564 2.891.588.024-.682 19.252v-.165zm0 0" stroke="#000" stroke-width="1.176"/></g><path d="M29.55 28.23h10.61m10.1 0h10.61m-17.21 0h3.1m24.21 0h10.61m-17.21 0h3.1m24.21 0h10.61m-17.21 0h3.1m24.21 0H123m-17.21 0h3.1m24.22 0h10.61m-17.21 0h3.1m24.21 0h10.61m-17.21 0h3.1m24.21 0h10.61m-17.21 0h3.1m24.21 0h10.61m-17.21 0h3.1m24.21 0h10.61m-17.21 0h3.1m24.22 0h10.61m-17.21 0h3.1m24.21 0h10.61m-17.21 0h3.1m24.21 0h10.61m-17.21 0h3.1m24.21 0h10.61m-17.21 0h3.1m24.21 0h10.61m-17.21 0h3.1m24.22 0h10.61m-17.21 0h3.1" stroke="#000" class="B C"/><text font-size="15" x="116.02" xml:space="preserve" y="69.76" class="E F">1</text><text x="105.81" xml:space="preserve" y="67.63" class="E F G">L</text><text font-size="15" x="19.29" xml:space="preserve" y="36.5" class="E F">1</text><text x="9.08" xml:space="preserve" y="34.36" class="E F G">D</text><text x="370.92" xml:space="preserve" y="34.78" class="E F G">D</text><g class="B C D"><path d="M21.69 6.1h19.8m-19.8 43.95h19.8"/><path d="M24.69 43.35v-30.6"/></g><path d="M23.27 42.922l1.44 7.18 1.44-7.18h-2.88zm2.86-29.782l-1.44-7.18-1.44 7.18h2.88z"/><g transform="rotate(180 354.388 28.094)"><g class="B C D"><path d="M344.49 6.16h19.8m-19.8 43.95h19.8"/><path d="M347.49 43.41v-30.6"/></g><path d="M346.07 42.985l1.44 7.18 1.44-7.18h-2.88zm2.86-29.785l-1.44-7.18-1.44 7.18h2.88z"/></g><path transform="rotate(270 46.246 64.569)" d="M36.35 64.57h19.8" class="B C D"/><use href="#B"/><g class="B C D"><path transform="rotate(270 173.296 64.669)" d="M163.4 64.67h19.8"/><path transform="rotate(270 109.446 71.569)" d="M109.45 128.72V14.42"/></g><use href="#C"/><path transform="rotate(270 46.246 84.044)" d="M36.35 84.05h19.8" class="B C D"/><use href="#B" x="0.005" y="19.476"/><g class="B C D"><path transform="rotate(270 339.828 75.694)" d="M321.48 75.7h36.7"/><path transform="rotate(270 192.978 91.045)" d="M192.98 231.2V-49.1"/></g><use href="#C" x="166.527" y="19.483"/><path transform="rotate(270 46.246 64.569)" d="M36.35 64.57h19.8" class="B C D"/><use href="#B"/><g class="B C D"><path transform="rotate(270 173.296 64.669)" d="M163.4 64.67h19.8"/><path transform="rotate(270 109.446 71.569)" d="M109.45 128.72V14.42"/></g><use href="#C"/><text x="192.98" xml:space="preserve" y="89.02" class="E F G">L</text></svg>