<svg xmlns="http://www.w3.org/2000/svg" width="380" height="100" xmlns:v="https://vecta.io/nano"><style><![CDATA[.L{stroke:#000}.M{stroke-width:.2}.N{fill:none}.O{font-family:Serif}.P{text-anchor:middle}.Q{font-size:20px}.R{clip-path:url(#A)}.S{stroke-width:1.18}]]></style><defs><clipPath id="A"><path d="M741.36 237.05h308v58.82h-308v-58.82zm0 0"/></clipPath></defs><text font-size="15" x="116.27" xml:space="preserve" y="71.73" class="O P">1</text><text x="105.81" xml:space="preserve" y="69.8" class="O P Q">L</text><text x="369.67" xml:space="preserve" y="35.7" class="O P Q">D</text><text x="193.13" xml:space="preserve" y="86.19" class="O P Q">L</text><g class="N L"><g class="R S"><path d="M51.58 53.43s9.71.2 18.6-4.42c0 0 3.9.69 9.51 1.11 0 0 5.76 1.65 9.87 2.19 0 0 11.15 4.1 25.69-3.48 0 0 2.96.79 10.36 1.12 0 0 9.09 2.28 13.28 2.98 0 0 10.24 2.28 24.26-3.03l9.73 3.53h155.35l3.5-3.88V10.79l-3.5-3.88H170.67l-14.05 1.56s-8.07-2.01-13.15-1.44c-5.07.55-12.16 2.09-12.16 2.09s-8.17 1.24-9.38 1.68c0 0-5.18.31-6.82.68 0 0-11.22-5.96-20.22-4.32l-5.86 1.12-3.49.61s-7.25 1.39-8.1 1.8l-7.03.64S62.02 6.9 51.57 6.9l.65 20.17-.56.05.54 3.05-.54 3.05.56.02-.65 20.34v-.17l.01.02zm0 0"/></g><path d="M38.39 30.24h10.12m9.64 0h10.12m-16.42 0h2.96m23.1 0h10.12m-16.42 0h2.96m23.1 0h10.12m-16.42 0h2.96m23.1 0h10.12m-16.42 0h2.96m23.11 0h10.12m-16.42 0h2.96m23.1 0h10.12m-16.42 0h2.96m23.1 0h10.12m-16.42 0h2.96m23.1 0h10.12m-16.42 0h2.96m23.1 0h10.12m-16.42 0h2.96m23.11 0h10.12m-16.42 0h2.96m23.1 0h10.12m-16.42 0h2.96m23.1 0h10.12m-16.42 0h2.96m23.1 0h10.12m-16.42 0h2.96m23.1 0h10.12m-16.42 0h2.96m23.11 0h10.12m-16.42 0h2.96" class="M"/></g><text font-size="15" x="20.54" xml:space="preserve" y="38.97" class="O P">1</text><text x="10.33" xml:space="preserve" y="37.03" class="O P Q">D</text><path transform="rotate(270 46.352 67.733)" d="M36.7 67.73H56" class="L M N"/><path d="M165.864 75.224l7.08-1.44-7.08-1.44v2.88z"/><path transform="rotate(90 173.1 67.733)" d="M163.35 67.73h19.3" class="L M N"/><path d="M53.328 72.485l-7.08 1.44 7.08 1.44v-2.88z"/><g class="L M N"><path d="M46.35 73.92h120.4"/><path transform="rotate(270 46.352 83.475)" d="M36.7 83.48H56"/></g><path d="M332.916 91.106l7.08-1.44-7.08-1.44v2.88z"/><path transform="rotate(270 339.9 75.575)" d="M322.35 75.58h35.1" class="L M N"/><path d="M53.336 88.228l-7.08 1.44 7.08 1.44v-2.88z"/><g class="L M N"><path d="M334.602 89.663h-282.7"/><path transform="rotate(270 359.561 30.296)" d="M343.71 30.3h31.7"/></g><path d="M358.122 45.054l1.44 7.08 1.44-7.08h-2.88z"/><path d="M343.62 8.05h19.3" class="L M N"/><path d="M360.86 15.03l-1.44-7.08-1.44 7.08h2.88z"/><g class="L M N"><path d="M363.018 52.034h-19.3"/><path transform="rotate(90 27.009 29.816)" d="M11.16 29.82h31.7"/></g><path d="M28.45 15.26l-1.44-7.08-1.44 7.08h2.88z"/><path d="M42.949 52.065h-19.3" class="L M N"/><path d="M25.709 45.084l1.44 7.08 1.44-7.08h-2.88z"/><path d="M23.55 8.28h19.3" class="L M N"/><path d="M46.14 52.11s10.19.19 19.49-4.18c0 0 4.1.65 9.99 1.05 0 0 6.03 1.56 10.34 2.08 0 0 11.7 3.86 26.93-3.31 0 0 3.11.78 10.86 1.08 0 0 9.52 2.16 13.92 2.82 0 0 10.74 2.16 25.44-2.87l10.21 3.33h162.81l3.67-3.67V11.76l-3.67-3.67H170.98l-14.72 1.47s-8.47-1.89-13.78-1.37-12.74 1.98-12.74 1.98-8.57 1.18-9.84 1.6c0 0-5.43.28-7.16.64 0 0-11.74-5.65-21.17-4.08l-6.16 1.05-3.66.58s-7.61 1.32-8.49 1.69l-7.37.62s-8.78-4.18-19.75-4.18l.69 19.09-.59.03.56 2.89-.56 2.89.58.03-.68 19.25v-.16zm0 0" fill="#dde2e5"/><path d="M46.14 52.27l.01-.16h-.01v.16zM173.32 8.09h-2.34l-14.71 1.48s-8.48-1.9-13.79-1.38-12.75 1.98-12.75 1.98-8.56 1.18-9.83 1.6l-7.16.64S101 6.76 91.57 8.33l-6.16 1.05-3.66.58s-7.61 1.32-8.49 1.7l-7.37.61s-8.78-4.18-19.75-4.18l.7 19.09-.61.03.57 2.89-.57 2.89.59.03-.67 19.09c.06.01 10.21.17 19.48-4.18 0 0 4.11.65 9.99 1.04 0 0 6.03 1.56 10.34 2.09 0 0 11.7 3.86 26.93-3.31 0 0 3.11.78 10.87 1.08 0 0 9.51 2.16 13.91 2.82 0 0 10.74 2.16 25.44-2.87l10.21 3.33V8.09zm0 0" fill="#b5b6b6"/><g class="N L"><g stroke-linecap="round" stroke-linejoin="round" stroke-miterlimit="10" class="M"><path d="M336.13 52.11H173.31M336.13 8.09H170.98M339.8 48.44V11.75m-3.67-3.66l3.67 3.67m-3.67 40.35l3.67-3.67m-3.67 3.67V8.08M46.91 30.57l-.78 21.53m.9-24.93l3.29 2.59 5.64 4.37c3.1 2.37 6.23 4.7 9.45 6.91 2.7 1.83 5.48 3.57 8.35 5.08 2.19 1.18 4.44 2.19 6.73 3.1 1.95.78 3.9 1.48 5.93 1.95 2.59.63 5.27.92 7.95.94 2.3.02 4.59-.14 6.84-.54 2.49-.45 4.96-1.2 7.34-2.07 1.46-.54 2.89-1.15 4.33-1.76"/><path d="M49.11 13.79l4.44 1.76c3.5 1.55 6.84 3.5 10.09 5.55 3.29 2.07 6.49 4.23 9.69 6.39l12.02 7.95c2.59 1.69 5.22 3.38 7.9 4.91 2.7 1.55 5.5 2.94 8.37 4.11 2.33.94 4.7 1.76 7.13 2.4 1.36.35 2.75.63 4.14.89a65.25 65.25 0 0 0 5.76.75 174.5 174.5 0 0 0 5.1.33M47.61 10.67l5.83 1.48c2.35.73 4.63 1.65 6.89 2.63l8.91 4.35c3.17 1.74 6.26 3.64 9.31 5.59l9.62 6.21 9.71 6.18c2.45 1.48 4.89 2.94 7.41 4.3a114.92 114.92 0 0 0 5.64 2.87c1.93.92 3.88 1.79 5.88 2.52 2.26.82 4.59 1.46 6.94 2.02 2.45.61 4.92 1.13 7.38 1.65M46.68 9.01l7.43 1.13c2.85.63 5.62 1.6 8.35 2.68a82 82 0 0 1 9.5 4.54l6.66 4.04 7.36 4.72 7.38 5.01 8.07 5.36c3.2 2.07 6.4 4.04 9.71 5.9 2.87 1.62 5.83 3.15 8.89 4.42 1.62.68 3.27 1.29 4.94 1.86 2.05.68 4.09 1.29 6.19 1.79 4.35 1.03 8.82 1.62 13.29 1.67 2.96.02 5.95-.21 8.84-.73 2.94-.54 5.79-1.41 8.65-2.26a3.68 3.68 0 0 1 .54-.16l.16-.05.47-.14M46.14 8.09l7.24.56c2.87.42 5.67 1.15 8.42 2.09 3.62 1.22 7.13 2.77 10.56 4.51 4.54 2.33 8.91 5.01 13.17 7.83 3.74 2.49 7.41 5.12 11.08 7.73 4.59 3.22 9.2 6.44 13.97 9.4 3.46 2.14 7.01 4.14 10.68 5.92 2.61 1.25 5.29 2.42 8.04 3.31s5.55 1.55 8.37 2.19m-91.53.48c2.42-.12 4.82-.24 7.22-.59a39.74 39.74 0 0 0 7.53-1.74c1.6-.56 3.17-1.2 4.75-1.86"/><path d="M51.51 44.08l6.14 1.97 5.53 1.46 2.45.42c3.39.49 6.8.78 10.21 1.06m-24.33-4.91l-3.79-10.37m-1.48-6.5a56.8 56.8 0 0 0 .49 2.54c.28 1.32.63 2.63.99 3.95m18.17-21.43c2.87-.31 5.74-.61 8.58-.63 2.75-.05 5.48.14 8.21.52 3.43.47 6.87 1.22 10.18 2.28 3.97 1.27 7.81 2.94 11.62 4.7 3.25 1.53 6.49 3.1 9.67 4.82 5.5 2.99 10.77 6.39 16.13 9.66 3.53 2.16 7.13 4.28 10.79 6.18a144.81 144.81 0 0 0 6.75 3.27c1.74.8 3.48 1.57 5.27 2.28l3.15 1.2M73.26 11.66c3.62-.82 7.22-1.67 10.91-1.93 2.85-.21 5.76-.09 8.61.31 3.43.49 6.82 1.41 10.07 2.66 3.43 1.32 6.7 2.96 9.85 4.8 3.41 1.95 6.68 4.11 9.88 6.37 3.95 2.75 7.81 5.64 11.74 8.46a232.05 232.05 0 0 0 8.33 5.76c2.05 1.36 4.14 2.68 6.26 3.88 2.42 1.39 4.89 2.63 7.36 3.88"/><path d="M81.21 10.06l9.17-1.2c2.49-.12 4.99-.02 7.46.38 2.85.45 5.62 1.29 8.33 2.33 3.03 1.15 5.97 2.56 8.8 4.14l4.66 2.8c3.46 2.21 6.82 4.63 10.11 7.1l9.31 7 8.91 6.42c1.34.96 2.66 1.93 4.05 2.77 1.36.82 2.82 1.57 4.28 2.3M85.62 9.35l3.72-.68c1.72-.31 3.46-.52 5.22-.56 2.52-.09 5.03.19 7.5.73 1.95.42 3.88.99 5.76 1.65l5.06 2c1.69.75 3.32 1.62 4.94 2.54l7.29 4.54 6.54 4.7 8 6.23 7.01 5.43a179.94 179.94 0 0 0 4.77 3.43l4.84 3.36M47.38 24.33l2.33-2.52m.01.01l4.26 2.68m0 0c.07.68.16 1.36.33 2.05.16.73.45 1.46.73 2.16m.01-.01l-6.82-.59m-1.2-.94l-.8.05m1.15-2.89v3.13m-.55-.28l-.68-19.09m-.01 0l.54.92m0 0l.94 1.65m-.01.01c0 .24 0 .47.09.66.05.12.14.24.24.33.35.38.59.56.85 1.29.14.42.31 1.06.33.85v-.14"/><path d="M49.11 13.79l.45 3.81.16 3.2v1.03M47.14 9.84l.38 14.34m-.81 5.51l7.6 5.69 6.77 4.82 7.13 4.4 6.54 3.13 3.08 1.29c2.61.96 5.36 1.5 8.14 2.05M47.73 33.7l6.94 4.7 7.29 4.47 7.1 3.64c2.21.96 4.47 1.83 6.77 2.49 3.32.94 6.73 1.5 10.11 2.07m26.8-38.66c2.38-.28 4.77-.59 7.15-.63 2.45-.07 4.92.12 7.34.49 2.28.35 4.54.85 6.73 1.53 3.5 1.1 6.84 2.66 10.28 4.02 2.09.85 4.23 1.62 6.37 2.33 3.67 1.22 7.41 2.23 11.12 3.24"/><path d="M119.57 11.78l9.81-1.55 7.1-.49c3.01-.02 6.04.19 9.01.78 3.65.68 7.2 1.9 10.72 3.13m-26.48-3.48l8.44-1.27c2.92-.24 5.83-.16 8.73.19 3.15.38 6.26 1.06 9.36 1.76m-21.02-1.62c3.1-.54 6.19-1.08 9.29-1.13 2.3-.05 4.61.19 6.87.54l5.88 1.15 5.13 1.27M51.51 44.08c-1.22.68-2.42 1.36-3.41 2.37-.49.52-.92 1.08-1.15 1.74-.21.59-.28 1.2-.26 1.83.05.71.21 1.39.38 2.09m-.83-19.12l.49-2.54.07-.35m.02 2.92l-.59-.02m110.03 13.55v-3.86m0-29.05V9.57m6.13 1.48c1.41.35 2.82.71 4.07.49 1.79-.28 3.2-1.72 4.52-3.46m-14.72 1.49l14.7-1.48m-14.74 5.54l14.21 4.68m.01 0l-8.7 5.08m-.01-.01c2.56 2.91 5.13 5.85 6.4 10.01 1.11 3.62 1.22 8.16-1.32 10.25-1.58 1.29-4.19 1.62-6.33 1.1-1.58-.4-2.89-1.22-4.23-2.07m.01 3.88l17.05 5.57M46.14 8.09v.45m0-.45h.45M339.8 48.44"/></g><g class="R S"><path d="M46.15 52.11s10.18.19 19.5-4.18c0 0 4.09.65 9.97 1.05 0 0 6.04 1.56 10.35 2.07 0 0 11.69 3.88 26.93-3.29 0 0 3.1.75 10.86 1.06 0 0 9.53 2.16 13.92 2.82 0 0 10.73 2.16 25.43-2.87l10.2 3.34h162.82l3.67-3.67V11.75l-3.67-3.67H170.99l-14.73 1.48s-8.46-1.9-13.78-1.36c-5.31.52-12.75 1.98-12.75 1.98s-8.56 1.17-9.83 1.59c0 0-5.43.29-7.15.64 0 0-11.76-5.64-21.19-4.09l-6.14 1.06-3.66.58s-7.6 1.32-8.49 1.7l-7.37.61s-8.79-4.19-19.75-4.19l.68 19.09-.59.05.57 2.89-.57 2.89.59.02-.68 19.25v-.16zm0 0"/></g><path d="M29.45 30.3h10.61m10.1 0h10.61m-17.21 0h3.1m24.21 0h10.61m-17.21 0h3.1m24.21 0h10.61m-17.21 0h3.1m24.21 0h10.61m-17.21 0h3.1m24.22 0h10.61m-17.21 0h3.1m24.21 0h10.61m-17.21 0h3.1m24.21 0h10.61m-17.21 0h3.1m24.21 0h10.61m-17.21 0h3.1m24.21 0h10.61m-17.21 0h3.1m24.22 0h10.61m-17.21 0h3.1m24.21 0h10.61m-17.21 0h3.1m24.21 0h10.61m-17.21 0h3.1m24.21 0h10.61m-17.21 0h3.1m24.21 0h10.61m-17.21 0h3.1m24.22 0h10.61m-17.21 0h3.1" class="M"/></g></svg>