<svg xmlns="http://www.w3.org/2000/svg" width="380" height="120" version="1.2"><defs><clipPath id="c"><path d="M801 358.18h308V417H801zm0 0"/></clipPath></defs><g class="layer"><path d="m23.2 11.69-1.49-7.44-1.49 7.44zM20.22 42.15l1.49 7.43 1.49-7.43zm0 0"/><path fill="none" stroke="#040000" stroke-linecap="round" stroke-linejoin="round" stroke-miterlimit="10" stroke-width=".2" d="M21.71 42.3V9.06"/><path d="m48.49 80.98-7.44 1.49 7.44 1.49zM143.43 83.96l7.43-1.48-7.43-1.5zm0 0"/><path fill="none" stroke="#040000" stroke-linecap="round" stroke-linejoin="round" stroke-miterlimit="10" stroke-width=".2" d="M145.52 82.48H45.85"/><path d="m48.35 113.07-7.44 1.48 7.44 1.5zM327.26 116.04l7.44-1.48-7.44-1.49zm0 0"/><path fill="none" stroke="#040000" stroke-linecap="round" stroke-linejoin="round" stroke-miterlimit="10" stroke-width=".2" d="M329.34 114.56H45.71"/><path fill="#DDE2E5" d="M41.05 48.69s10.19.19 19.49-4.18c0 0 4.1.65 9.99 1.05 0 0 6.03 1.56 10.34 2.08 0 0 11.7 3.86 26.93-3.31 0 0 3.11.78 10.86 1.08 0 0 9.52 2.16 13.92 2.82 0 0 10.74 2.16 25.44-2.87l10.21 3.33h162.81l3.67-3.67V8.34l-3.67-3.67H165.89l-14.72 1.47s-8.47-1.89-13.78-1.37-12.74 1.98-12.74 1.98-8.57 1.18-9.84 1.6c0 0-5.43.28-7.16.64 0 0-11.74-5.65-21.17-4.08 0 0-5.3.92-6.16 1.05-.85.13-3.66.58-3.66.58s-7.61 1.32-8.49 1.69c0 0-6.63.47-7.37.62 0 0-8.78-4.18-19.75-4.18l.69 19.09-.59.03.56 2.89-.56 2.89.58.03-.68 19.25zm0 0"/><path fill="#B5B6B6" d="m41.05 48.85.01-.16h-.01zM168.23 4.67h-2.34l-14.71 1.48s-8.48-1.9-13.79-1.38-12.75 1.98-12.75 1.98-8.56 1.18-9.83 1.6c0 0-5.43.29-7.16.64 0 0-11.74-5.65-21.17-4.08 0 0-5.3.92-6.16 1.05s-3.66.58-3.66.58-7.61 1.32-8.49 1.7c0 0-6.62.46-7.37.61 0 0-8.78-4.18-19.75-4.18l.7 19.09-.61.03.57 2.89-.57 2.89.59.03-.67 19.09c.06.01 10.21.17 19.48-4.18 0 0 4.11.65 9.99 1.04 0 0 6.03 1.56 10.34 2.09 0 0 11.7 3.86 26.93-3.31 0 0 3.11.78 10.87 1.08 0 0 9.51 2.16 13.91 2.82 0 0 10.74 2.16 25.44-2.87l10.21 3.33zm0 0"/><path fill="none" stroke="#000" stroke-linecap="round" stroke-linejoin="round" stroke-miterlimit="10" stroke-width=".2" d="M331.04 48.69H168.22M331.04 4.67H165.89M334.71 45.02V8.33M331.04 4.67l3.67 3.67M331.04 48.69l3.67-3.67M331.04 48.69V4.66M41.82 27.15l-.78 21.53M41.94 23.75c1.11.87 2.19 1.74 3.29 2.59 1.86 1.48 3.74 2.94 5.64 4.37 3.1 2.37 6.23 4.7 9.45 6.91 2.7 1.83 5.48 3.57 8.35 5.08 2.19 1.18 4.44 2.19 6.73 3.1 1.95.78 3.9 1.48 5.93 1.95 2.59.63 5.27.92 7.95.94 2.3.02 4.59-.14 6.84-.54 2.49-.45 4.96-1.2 7.34-2.07 1.46-.54 2.89-1.15 4.33-1.76"/><path fill="none" stroke="#000" stroke-linecap="round" stroke-linejoin="round" stroke-miterlimit="10" stroke-width=".2" d="M44.02 10.37c1.48.56 2.99 1.13 4.44 1.76 3.5 1.55 6.84 3.5 10.09 5.55 3.29 2.07 6.49 4.23 9.69 6.39 3.97 2.66 8 5.31 12.02 7.95 2.59 1.69 5.22 3.38 7.9 4.91 2.7 1.55 5.5 2.94 8.37 4.11 2.33.94 4.7 1.76 7.13 2.4 1.36.35 2.75.63 4.14.89 1.9.33 3.83.59 5.76.75 1.69.14 3.41.24 5.1.33"/><path fill="none" stroke="#000" stroke-linecap="round" stroke-linejoin="round" stroke-miterlimit="10" stroke-width=".2" d="M42.52 7.25c1.95.45 3.9.89 5.83 1.48 2.35.73 4.63 1.65 6.89 2.63 3.03 1.32 6.02 2.77 8.91 4.35 3.17 1.74 6.26 3.64 9.31 5.59 3.22 2.05 6.42 4.11 9.62 6.21 3.22 2.09 6.44 4.16 9.71 6.18 2.45 1.48 4.89 2.94 7.41 4.3 1.86 1.01 3.74 1.97 5.64 2.87 1.93.92 3.88 1.79 5.88 2.52 2.26.82 4.59 1.46 6.94 2.02 2.45.61 4.92 1.13 7.38 1.65"/><path fill="none" stroke="#000" stroke-linecap="round" stroke-linejoin="round" stroke-miterlimit="10" stroke-width=".2" d="M41.59 5.59c2.49.31 4.99.59 7.43 1.13 2.85.63 5.62 1.6 8.35 2.68a82 82 0 0 1 9.5 4.54c2.26 1.27 4.44 2.66 6.66 4.04 2.45 1.55 4.92 3.1 7.36 4.72 2.47 1.62 4.92 3.34 7.38 5.01 2.66 1.83 5.36 3.62 8.07 5.36 3.2 2.07 6.4 4.04 9.71 5.9 2.87 1.62 5.83 3.15 8.89 4.42 1.62.68 3.27 1.29 4.94 1.86 2.05.68 4.09 1.29 6.19 1.79 4.35 1.03 8.82 1.62 13.29 1.67 2.96.02 5.95-.21 8.84-.73 2.94-.54 5.79-1.41 8.65-2.26.19-.07.35-.12.54-.16l.16-.05.47-.14"/><path fill="none" stroke="#000" stroke-linecap="round" stroke-linejoin="round" stroke-miterlimit="10" stroke-width=".2" d="M41.05 4.67c2.42.12 4.84.24 7.24.56 2.87.42 5.67 1.15 8.42 2.09 3.62 1.22 7.13 2.77 10.56 4.51 4.54 2.33 8.91 5.01 13.17 7.83 3.74 2.49 7.41 5.12 11.08 7.73 4.59 3.22 9.2 6.44 13.97 9.4 3.46 2.14 7.01 4.14 10.68 5.92 2.61 1.25 5.29 2.42 8.04 3.31s5.55 1.55 8.37 2.19M41.05 48.69c2.42-.12 4.82-.24 7.22-.59 2.56-.33 5.08-.92 7.53-1.74 1.6-.56 3.17-1.2 4.75-1.86"/><path fill="none" stroke="#000" stroke-linecap="round" stroke-linejoin="round" stroke-miterlimit="10" stroke-width=".2" d="M46.42 40.66c2.05.68 4.07 1.34 6.14 1.97 1.81.54 3.67 1.08 5.53 1.46.82.16 1.62.28 2.45.42 3.39.49 6.8.78 10.21 1.06M46.42 40.66l-3.79-10.37M41.15 23.79c.14.85.31 1.69.49 2.54.28 1.32.63 2.63.99 3.95M60.8 8.85c2.87-.31 5.74-.61 8.58-.63 2.75-.05 5.48.14 8.21.52 3.43.47 6.87 1.22 10.18 2.28 3.97 1.27 7.81 2.94 11.62 4.7 3.25 1.53 6.49 3.1 9.67 4.82 5.5 2.99 10.77 6.39 16.13 9.66 3.53 2.16 7.13 4.28 10.79 6.18 2.21 1.15 4.47 2.23 6.75 3.27 1.74.8 3.48 1.57 5.27 2.28 1.06.42 2.12.82 3.15 1.2"/><path fill="none" stroke="#000" stroke-linecap="round" stroke-linejoin="round" stroke-miterlimit="10" stroke-width=".2" d="M68.17 8.24c3.62-.82 7.22-1.67 10.91-1.93 2.85-.21 5.76-.09 8.61.31 3.43.49 6.82 1.41 10.07 2.66 3.43 1.32 6.7 2.96 9.85 4.8 3.41 1.95 6.68 4.11 9.88 6.37 3.95 2.75 7.81 5.64 11.74 8.46 2.73 1.97 5.5 3.9 8.33 5.76 2.05 1.36 4.14 2.68 6.26 3.88 2.42 1.39 4.89 2.63 7.36 3.88"/><path fill="none" stroke="#000" stroke-linecap="round" stroke-linejoin="round" stroke-miterlimit="10" stroke-width=".2" d="M76.12 6.64c3.03-.52 6.09-1.03 9.17-1.2 2.49-.12 4.99-.02 7.46.38 2.85.45 5.62 1.29 8.33 2.33 3.03 1.15 5.97 2.56 8.8 4.14 1.58.89 3.13 1.83 4.66 2.8 3.46 2.21 6.82 4.63 10.11 7.1 3.1 2.3 6.19 4.7 9.31 7 2.94 2.16 5.93 4.28 8.91 6.42 1.34.96 2.66 1.93 4.05 2.77 1.36.82 2.82 1.57 4.28 2.3"/><path fill="none" stroke="#000" stroke-linecap="round" stroke-linejoin="round" stroke-miterlimit="10" stroke-width=".2" d="M80.53 5.93c1.22-.24 2.47-.49 3.72-.68 1.72-.31 3.46-.52 5.22-.56 2.52-.09 5.03.19 7.5.73 1.95.42 3.88.99 5.76 1.65 1.72.59 3.41 1.25 5.06 2 1.69.75 3.32 1.62 4.94 2.54 2.49 1.41 4.92 2.94 7.29 4.54 2.21 1.5 4.4 3.08 6.54 4.7 2.7 2.05 5.34 4.14 8 6.23 2.3 1.83 4.63 3.67 7.01 5.43 1.58 1.18 3.15 2.3 4.77 3.43 1.6 1.13 3.22 2.26 4.84 3.36M42.29 20.91l2.33-2.52M44.63 18.4l4.26 2.68M48.89 21.08c.07.68.16 1.36.33 2.05.16.73.45 1.46.73 2.16M49.96 25.28l-6.82-.59M41.94 23.75l-.8.05M42.29 20.91v3.13M41.74 23.76l-.68-19.09M41.05 4.67l.54.92M41.59 5.59l.94 1.65M42.52 7.25c0 .24 0 .47.09.66.05.12.14.24.24.33.35.38.59.56.85 1.29.14.42.31 1.06.33.85v-.14"/><path fill="none" stroke="#000" stroke-linecap="round" stroke-linejoin="round" stroke-miterlimit="10" stroke-width=".2" d="M44.02 10.37c.16 1.27.35 2.54.45 3.81.09 1.06.14 2.14.16 3.2v1.03M42.05 6.42l.38 14.34M41.62 26.27c2.52 1.9 5.03 3.83 7.6 5.69 2.23 1.65 4.47 3.27 6.77 4.82s4.66 3.06 7.13 4.4c2.12 1.13 4.33 2.14 6.54 3.13 1.01.47 2.05.92 3.08 1.29 2.61.96 5.36 1.5 8.14 2.05"/><path fill="none" stroke="#000" stroke-linecap="round" stroke-linejoin="round" stroke-miterlimit="10" stroke-width=".2" d="M42.64 30.28c2.3 1.57 4.61 3.17 6.94 4.7 2.38 1.57 4.8 3.08 7.29 4.47 2.3 1.32 4.66 2.56 7.1 3.64 2.21.96 4.47 1.83 6.77 2.49 3.32.94 6.73 1.5 10.11 2.07M107.65 8.99c2.38-.28 4.77-.59 7.15-.63 2.45-.07 4.92.12 7.34.49 2.28.35 4.54.85 6.73 1.53 3.5 1.1 6.84 2.66 10.28 4.02 2.09.85 4.23 1.62 6.37 2.33 3.67 1.22 7.41 2.23 11.12 3.24"/><path fill="none" stroke="#000" stroke-linecap="round" stroke-linejoin="round" stroke-miterlimit="10" stroke-width=".2" d="M114.48 8.36c3.27-.59 6.51-1.18 9.81-1.55 2.35-.28 4.73-.47 7.1-.49 3.01-.02 6.04.19 9.01.78 3.65.68 7.2 1.9 10.72 3.13"/><path fill="none" stroke="#000" stroke-linecap="round" stroke-linejoin="round" stroke-miterlimit="10" stroke-width=".2" d="M124.64 6.75c2.8-.52 5.62-1.06 8.44-1.27 2.92-.24 5.83-.16 8.73.19 3.15.38 6.26 1.06 9.36 1.76"/><path fill="none" stroke="#000" stroke-linecap="round" stroke-linejoin="round" stroke-miterlimit="10" stroke-width=".2" d="M130.15 5.81c3.1-.54 6.19-1.08 9.29-1.13 2.3-.05 4.61.19 6.87.54 2 .31 3.95.71 5.88 1.15 1.72.4 3.41.82 5.13 1.27M46.42 40.66c-1.22.68-2.42 1.36-3.41 2.37-.49.52-.92 1.08-1.15 1.74-.21.59-.28 1.2-.26 1.83.05.71.21 1.39.38 2.09M41.15 29.57c.14-.85.31-1.69.49-2.54.02-.12.05-.24.07-.35M41.73 29.6l-.59-.02M151.17 43.13v-3.86M151.17 10.22V6.15M157.3 7.63c1.41.35 2.82.71 4.07.49 1.79-.28 3.2-1.72 4.52-3.46M151.17 6.15l14.7-1.48M151.13 10.21l14.21 4.68M165.35 14.89l-8.7 5.08M156.64 19.96c2.56 2.91 5.13 5.85 6.4 10.01 1.11 3.62 1.22 8.16-1.32 10.25-1.58 1.29-4.19 1.62-6.33 1.1-1.58-.4-2.89-1.22-4.23-2.07M151.17 43.13l17.05 5.57M41.05 4.67v.45M41.05 4.67h.45M334.71 45.02"/><g clip-path="url(#c)"><path fill="none" stroke="#000" stroke-width=".5" d="M-326.34 153.57s4.33-.08 8.29 1.78c0 0 1.74-.28 4.24-.45 0 0 2.57-.66 4.4-.88 0 0 4.97-1.65 11.45 1.4 0 0 1.32-.32 4.62-.45 0 0 4.05-.92 5.92-1.2 0 0 4.56-.92 10.81 1.22l4.34-1.42h69.23l1.56 1.56v15.61l-1.56 1.56h-70.22l-6.26-.63s-3.6.81-5.86.58c-2.26-.22-5.42-.84-5.42-.84s-3.64-.5-4.18-.68c0 0-2.31-.12-3.04-.27 0 0-5 2.4-9.01 1.74 0 0-2.25-.4-2.61-.45l-1.56-.25s-3.23-.56-3.61-.72c0 0-2.82-.2-3.13-.26 0 0-3.74 1.78-8.4 1.78l.29-8.12-.25-.02.24-1.23-.24-1.23.25-.01-.29-8.19zm0 0" transform="matrix(2.35185 0 0 -2.35066 808.555 409.691)"/></g><path fill="none" stroke="#040000" stroke-linecap="round" stroke-linejoin="round" stroke-miterlimit="10" stroke-width=".2" d="M18.76 4.01h19.86M18.76 49.34h19.91M40.8 50.65v66.85M150.92 50.65v35.4M335.14 47.35v70.17"/><path fill="none" stroke="#000" stroke-width=".2" d="M24.36 26.88h10.61M45.07 26.88h10.61M38.47 26.88h3.1M65.78 26.88h10.61M59.18 26.88h3.1M86.49 26.88H97.1M79.89 26.88h3.1M107.2 26.88h10.61M100.6 26.88h3.1M127.92 26.88h10.61M121.32 26.88h3.1M148.63 26.88h10.61M142.03 26.88h3.1M169.34 26.88h10.61M162.74 26.88h3.1M190.05 26.88h10.61M183.45 26.88h3.1M210.76 26.88h10.61M204.16 26.88h3.1M231.48 26.88h10.61M224.88 26.88h3.1M252.19 26.88h10.61M245.59 26.88h3.1M272.9 26.88h10.61M266.3 26.88h3.1M293.61 26.88h10.61M287.01 26.88h3.1M314.32 26.88h10.61M307.72 26.88h3.1M335.04 26.88h10.61M328.44 26.88h3.1"/><text xml:space="preserve" x="13.75" y="26.5" stroke="#000" stroke-width="0" font-family="Serif" font-size="1" text-anchor="middle">d</text><text xml:space="preserve" x="12.5" y="34.75" stroke="#000" stroke-width="0" font-family="Serif" font-size="24" text-anchor="middle">d</text><path d="m349.67 41.98 1.49 7.44 1.49-7.44zM352.65 11.52l-1.49-7.43-1.49 7.43zm0 0"/><path fill="none" stroke="#040000" stroke-linecap="round" stroke-linejoin="round" stroke-miterlimit="10" stroke-width=".2" d="M351.16 11.37v33.24M354.11 49.66h-19.86M354.11 4.33H334.2"/><path fill="none" stroke="#000" stroke-width=".2" d="M348.51 26.79H337.9"/><text xml:space="preserve" x="363.13" y="34.13" stroke="#000" stroke-width="0" font-family="Serif" font-size="24" text-anchor="middle">D</text><text xml:space="preserve" x="192.13" y="110.38" stroke="#000" stroke-width="0" font-family="Serif" font-size="24" text-anchor="middle">L</text><text xml:space="preserve" x="97.13" y="78.38" stroke="#000" stroke-width="0" font-family="Serif" font-size="24" text-anchor="middle">l</text></g></svg>