<svg xmlns="http://www.w3.org/2000/svg" width="380" height="100" xmlns:v="https://vecta.io/nano"><style><![CDATA[.J{stroke-width:.2}.K{fill:none}.L{stroke:#000}.M{font-family:Serif}.N{text-anchor:middle}.O{font-size:20px}.P{stroke-linecap:round}.Q{stroke-linejoin:round}]]></style><text font-size="15" x="116.27" xml:space="preserve" y="67.81" class="M N">1</text><text x="105.81" xml:space="preserve" y="65.88" class="M N O">L</text><text x="369.67" xml:space="preserve" y="36.23" class="M N O">D</text><text x="193.13" xml:space="preserve" y="82.27" class="M N O">L</text><path transform="rotate(270 46.352 63.822)" d="M36.7 63.81H56" class="J K L"/><path d="M155.673 71.313l7.08-1.44-7.08-1.44v2.88z"/><path d="M162.81 54.07v19.3" class="J K L"/><path d="M53.319 68.575l-7.08 1.44 7.08 1.44v-2.88z"/><g class="J K L"><path d="M46.35 70h110.5"/><path transform="rotate(270 46.352 79.564)" d="M36.7 79.56H56"/></g><path d="M332.925 87.195l7.08-1.44-7.08-1.44v2.88z"/><path transform="rotate(270 339.9 71.664)" d="M322.35 71.66h35.1" class="J K L"/><path d="M53.327 84.317l-7.08 1.44 7.08 1.44v-2.88z"/><g class="J K L"><path d="M334.602 85.761h-282.7"/><path transform="rotate(270 359.56 30.286)" d="M346.36 30.29h26.4"/></g><path d="M358.122 42.402l1.44 7.08 1.44-7.08h-2.88z"/><path d="M343.62 10.88h19.3" class="J K L"/><path d="M360.86 17.86l-1.44-7.08-1.44 7.08h2.88z"/><path d="M363.018 49.382h-19.3" class="J K L"/><path d="M51.32 43.86c-1.33 1.42-2.76 2.6-4.25 3.52v-.02h-.28l.19-9.27.36-1.83.28-.99-.47-1.97-.27-2.52-.09-.84.04-.06.22-.38.11.01-.36-16.73.08-.12c.03-.07.05-.15.08-.24l.25-.21c.26-.14.53-.24.8-.27l.22-.06c1.58-.63 3.23-.88 4.86-.77h.49c1.72.11 3.43.64 5.05 1.55l-.01-.01c1.68.93 3.28 2.14 4.78 3.59l-.02.06 10.74-3.94.09-.06c.89-.25 1.78-.38 2.66-.37l.12-.12c1.88-.8 3.84-1.05 5.78-.73l.08.07c1.3.27 2.57.81 3.77 1.62l.06.02c1.46.96 2.85 2.15 4.14 3.55l.08.01 4.98-1.76 5-1.96.1-.06c1.11-.41 2.24-.63 3.39-.65h.27l.58-.28h55.91l1.67-.55h175.67l1.3 1.97v34.03l-1.3 1.96H162.8v.27l-1.67-.7h-46.28l-.92-.55-7.69-3.66h.01a23.79 23.79 0 0 1-3.56 2.67l.01-.05c-2.46 1.55-5.14 2.16-7.79 1.76l-.16.07c-1.03-.09-2.06-.34-3.07-.74l-1.8-.24c-.91-.15-1.74-.29-2.61-.66h-.09l-9.35-3.52.02-.05c-1.55 1.58-3.21 2.89-4.97 3.87l.01-.01c-2.08 1.19-4.32 1.63-6.52 1.26l-.05.08c-1.01-.08-2-.34-2.98-.74l.02-.05c-1.48-.04-2.97-.38-4.39-1.04l-.1.06-7.59-3.24.09.02h-.05zm0 0" fill="rgb(86.66687%,88.627625%,89.804077%)"/><path d="M161.1 48.82h-46.28l-.92-.55-7.69-3.65h.01a22.35 22.35 0 0 1-3.56 2.65l.01-.05c-2.46 1.56-5.14 2.16-7.79 1.77l-.16.07c-1.03-.09-2.06-.34-3.07-.74l-1.8-.24c-.9-.17-1.74-.31-2.61-.66h-.09L77.8 43.9l.02-.06c-1.54 1.59-3.21 2.89-4.97 3.87h.01c-2.08 1.19-4.32 1.63-6.52 1.26l-.05.08c-1.01-.09-2-.34-2.98-.76l.02-.05c-1.48-.02-2.97-.38-4.39-1.04l-.1.06-7.59-3.23.09.01c-1.33 1.42-2.76 2.6-4.26 3.53l.01-.02h-.28l.19-9.29h0l.36-1.83.28-.98-.47-1.97-.27-2.54-.09-.84.04-.05.22-.38h.11l-.36-16.73.08-.11.08-.25.25-.21c.26-.14.53-.24.8-.26l.22-.06c1.58-.64 3.23-.88 4.87-.77l.48-.01c1.72.12 3.43.65 5.05 1.56l-.01-.01c1.68.93 3.28 2.12 4.77 3.59l-.02.05 10.74-3.94.09-.05a9.06 9.06 0 0 1 2.67-.37l.11-.13c1.88-.8 3.84-1.04 5.78-.72l.07.06c1.3.27 2.58.81 3.78 1.62l.06.04c1.46.94 2.85 2.15 4.14 3.55l.08.01 4.98-1.76 5-1.97.1-.06c1.11-.4 2.24-.63 3.38-.64h.28l.58-.28h55.91v36.96l-.04.04zm0 0" fill="rgb(70.980835%,71.372986%,71.372986%)"/><g stroke="rgb(0%,0%,0%)" class="K"><g stroke-miterlimit="10"><path d="M51.32 43.86c-1.33 1.41-2.76 2.61-4.25 3.52v-.03h-.27l.18-9.26.37-1.83.27-1-.46-1.97-.27-2.52-.09-.83.04-.06c.07-.14.15-.25.22-.39h.11l-.37-16.72.07-.11c.04-.08.05-.17.07-.25l.26-.19a1.79 1.79 0 0 1 .8-.28l.2-.06c1.59-.64 3.23-.89 4.88-.78h.49c1.72.11 3.41.64 5.04 1.55h0c1.66.92 3.27 2.11 4.77 3.58l-.02.06 10.74-3.94.09-.06c.88-.25 1.77-.39 2.67-.36l.11-.14c1.88-.8 3.83-1.05 5.79-.72l.07.06c1.3.28 2.57.83 3.78 1.64l.05.03c1.46.94 2.85 2.14 4.14 3.55h.07l4.97-1.75 5-1.97.11-.06c1.11-.42 2.25-.64 3.4-.64h.27l.57-.28h55.91c0-.03 1.68-.58 1.68-.58h175.67l1.3 1.97v34.03l-1.3 1.97H162.78l-1.66-.42h-46.29l-.93-.58-7.69-3.63h.02a23.86 23.86 0 0 1-3.58 2.66l.02-.06c-2.46 1.55-5.15 2.16-7.8 1.77l-.15.06c-1.04-.08-2.06-.33-3.07-.75l-1.81-.22c-.91-.17-1.73-.31-2.61-.67h-.09l-9.35-3.52.02-.06c-1.55 1.61-3.21 2.91-4.97 3.88h0c-2.08 1.19-4.31 1.61-6.52 1.25l-.05.08a9.4 9.4 0 0 1-2.98-.75l.02-.06a10.73 10.73 0 0 1-4.4-1.03l-.09.06-7.6-3.24.09.03.01.02zm0 0" stroke-width=".5"/><g class="J P Q"><path d="M47.07 47.42h-.27"/><path d="M47.07 47.44c1.5-.92 2.92-2.11 4.25-3.52m-4.53 3.5l.18-9.29m-.06 7.95l.16 1.36"/><path d="M47.45 42.98c-.26.5-.4 1.05-.46 1.66m2.03-3.46c-.66.31-1.22.92-1.64 1.75m.62-5.9l1.52 6.05m-1.9-7.75l-.27.97-.37 1.86 1-1.14-.82-3.66-.29-2.52-.09-.86m2.78 13.04c.58.33 1.17.61 1.77.83m-3.3-6.86c1.64 2.14 3.36 4.1 5.17 5.91m5.62 4.24l-7.6-3.24m1.96-1c1.72 1.69 3.54 3.05 5.48 4.05m.26.14c1.42.67 2.9 1.03 4.38 1.03M46.83 29.94a4.53 4.53 0 0 0 .22-.39"/><path d="M47.07 29.57l1.21.14m.03-.01c.05 0 .11 0 .18-.03m.06-.11c.05-.03.11-.08.15-.17m.02.09c.02-.06.02-.11.02-.17m-.01-.02c-.02-.17-.07-.28-.16-.36m.02.05c-.15-.17-.33-.25-.49-.25"/><path d="M48.01 28.72c-.2 0-.42.03-.62.08m-.03 0l-.07.83"/><path d="M47.44 25.71a13.48 13.48 0 0 0-.02 3.11"/><path d="M49.57 20.29l-2.14 5.49-.27-13.51"/><path d="M47.24 12.23c-.09.08-.18.19-.26.28m-.03-.03l-.07.25m.28 16.84l-.37-16.72m1.2-.84a2.13 2.13 0 0 0-.8.25m6.47.93c-1.83-.94-3.74-1.39-5.68-1.33m1.67 8.41c-.04-1.77-.2-3.55-.51-5.27"/><path d="M49.08 14.88l-.38-1.5"/><path d="M48.77 13.47c-.16-.58-.42-1.08-.73-1.47M63.3 48.17c.97.42 1.97.67 2.98.75M47.07 29.99l5 7.18m.03-.13c1.73 2.36 3.58 4.55 5.51 6.55M46.88 30.83l6.85 9.29m.06-.2c1.52 1.86 3.1 3.52 4.77 5.05M47.7 29.73c-.26-.03-.51-.03-.77 0m7.01.67l-6.28-.58"/><path d="M53.96 30.41c.62 0 1.26-.08 1.86-.28m.04.05c.55-.17 1.08-.5 1.53-1m-.03-.06c.22-.25.37-.58.42-1m.02.07a1.22 1.22 0 0 0-.05-.5m-.01-.04c-.13-.36-.29-.64-.53-.86m.05.04c-1.3-1.47-2.67-2.8-4.09-3.99m.01-.09c-1.13-.94-2.32-1.83-3.52-2.61m10.79-1.63c-2.08-2.25-4.38-4.02-6.81-5.24M69.97 29.9c-2.98-4.16-6.13-7.96-9.46-11.43m9.33 11.52L74 35.34l4.35 5.19m.04-.14c2.54 2.8 5.33 5.02 8.29 6.57M57.66 43.6c1.53 1.58 3.2 2.88 4.93 3.88m-.01-.01c1.21.67 2.46 1.14 3.74 1.33m-7.73-3.75c1.5 1.3 3.09 2.36 4.75 3.08m2.99.71c2.21.36 4.44-.06 6.52-1.28m-.01.02c1.75-.97 3.41-2.27 4.97-3.88"/><path d="M87.15 47.28l-9.35-3.52m9.37 3.4c.88.36 1.77.64 2.67.78m.04-.1c.62.11 1.22.17 1.84.14m-38.65-36.8a11.06 11.06 0 0 0-4.88.78m10.06.92c-1.64-.97-3.4-1.55-5.15-1.69m12.38 7.98c-2.21-2.61-4.64-4.71-7.25-6.24m13.51 14.08c-2.01-2.77-4.11-5.41-6.3-7.88"/><path d="M53.59 11.16c-.86-.03-1.72.03-2.57.14m7.58 1.43c-1.63-.92-3.32-1.44-5.04-1.55m9.82 5.12c-1.5-1.44-3.1-2.66-4.78-3.58m13.09 14.32l7.87 10.54m.05.01c1.66 2.11 3.4 4.05 5.22 5.82M63.36 16.35l10.74-3.94"/><path d="M80.8 12.94c-2.14-1.03-4.42-1.22-6.63-.58m5.7-1.17c-1 .08-1.99.36-2.94.75m-9.96 8.02c-1.15-1.36-2.34-2.61-3.56-3.77m8.74 10.52l-5.26-6.66m5.26 6.71l5.93 8.02L81.31 39l3.51 3.8m-.03.01c1.42 1.47 2.92 2.75 4.49 3.8m.06 0c1.75 1.19 3.6 1.94 5.5 2.3m-10-5.45c2.12 2.05 4.42 3.66 6.85 4.74m-.04-.02a11.88 11.88 0 0 0 3.07.75m.15-.08c2.65.39 5.33-.22 7.8-1.77m-.02.06c1.24-.75 2.43-1.64 3.58-2.66m7.66 3.64l-7.69-3.66M82.74 11.15c-1.94-.33-3.91-.08-5.79.72m9.65.95c-1.24-.83-2.57-1.39-3.91-1.64m8.1 5.22c-1.3-1.41-2.68-2.61-4.13-3.55m-2.9-1.07c-1.26-.5-2.57-.69-3.89-.61m7.42 2.68c-1.11-.89-2.28-1.58-3.49-2.05m8.99 7.9c-1.72-2.22-3.58-4.13-5.55-5.77m11.9 14.58a124.45 124.45 0 0 0-6.3-8.93m6.25 9l4.53 6.74m-.15-.33l4.27 5.82"/><path d="M107.81 40.85l1.44 1.66m.22 2.25c1.35 1.3 2.79 2.36 4.29 3.16"/><path d="M109.52 44.78l-.02-.83"/><path d="M109.45 44.04c.16-.22.26-.5.27-.8"/><path d="M109.68 43.14l-.15-.64M85.55 16.39c-1.5-1.47-3.12-2.61-4.82-3.38m11.58 11.17c-2.06-2.94-4.31-5.57-6.7-7.85m6.63 7.89l8.98 12.51m-.05.02c1.79 2.44 3.71 4.69 5.73 6.71m.07-.01c.75.75 1.53 1.41 2.34 2.02m-.02-.05c.05.03.15.06.2.03m-.01-.03c.04-.03.05-.08.07-.14"/><path d="M109.54 45.28l-.02-.53m-.07-.86c0-.44-.05-.86-.18-1.25m.03.06c-.02-.06-.05-.08-.09-.11M92.03 17.81l-1.26-1.41m6.21 8.16c-1.59-2.36-3.25-4.58-5.02-6.66m12.31 17.57l-7.3-10.98m7.41 11.02l4.86 6.49"/><path d="M109.18 41.98c.64.75 1.42 1.19 2.23 1.22m.06-.14c.2 0 .4-.03.6-.08m-.04.07c2.83-1.11 5.59-2.63 8.22-4.55m.05.01c1.39-1.03 2.67-2.39 3.78-4.02m-.01.03c.57-.89 1-1.94 1.28-3.13m-.02-.08c.29-1.44.11-3-.46-4.22m-34.21-10.6l5.19-1.83 5-1.97m3.76-.7c-1.24-.03-2.46.19-3.67.64m4.31-.82a6.96 6.96 0 0 0-.71.28"/><path d="M109.16 13.19c-1.5-.78-3.05-1.16-4.62-1.19m4.72 1.1c.05.03.13 0 .16-.08m-.08-.01a1.46 1.46 0 0 0 .11-.55m.1 0l-.02-.78m15.35 15.44c-.27-.64-.6-1.25-.97-1.75m-.01-.04a86.28 86.28 0 0 0-5.81-7.38m-.02.1c-1.52-1.72-3.12-3.19-4.82-4.44m.07-.11c-1.1-.78-2.23-1.39-3.38-1.8m4.03 36.29l.89.39m223.59-37.23l1.3 1.97v34.03l-1.3 1.97V11.15"/><path d="M105.19 11.71h55.91V48.4m177.35-37.25H162.76l-1.66.55m1.67-.55v37.97l-1.66-.69h-46.29"/></g></g><path d="M347.21 30.13H34.78" stroke-dasharray="15,2,2,2" class="J P Q"/></g><text font-size="15" x="20.54" xml:space="preserve" y="37.47" class="M N">1</text><text x="10.33" xml:space="preserve" y="35.53" class="M N O">D</text><path transform="rotate(90 27.009 29.576)" d="M14.31 29.58h25.4" class="J K L"/><path d="M28.45 17.86l-1.44-7.08-1.44 7.08h2.88z"/><path d="M42.949 48.583h-19.3" class="J K L"/><path d="M25.709 41.602l1.44 7.08 1.44-7.08h-2.88z"/><path d="M23.55 10.88h19.3" class="J K L"/></svg>