<svg xmlns="http://www.w3.org/2000/svg" xml:space="preserve" width="57.127" height="57.127"><circle cx="28.564" cy="28.564" r="23.86" fill="#fff" stroke="#000" stroke-miterlimit="10" stroke-width=".8"/><g fill="#fff" stroke="#000" stroke-miterlimit="10" stroke-width=".8"><path d="M28.573 28.6 25.053.435 29.909.8l8.376 5.705-6.191 5.342zM29.909.8l2.185 11.047"/></g><g fill="#fff" stroke="#000" stroke-miterlimit="10" stroke-width=".8"><path d="M28.6 28.554.435 32.074.8 27.218l5.705-8.376 5.342 6.191zM.8 27.218l11.047-2.185"/></g><g fill="#fff" stroke="#000" stroke-miterlimit="10" stroke-width=".8"><path d="m28.554 28.527 3.52 28.165-4.856-.364-8.376-5.706 6.191-5.342zM27.218 56.328 25.033 45.28"/></g><g fill="#fff" stroke="#000" stroke-miterlimit="10" stroke-width=".8"><path d="m28.527 28.573 28.165-3.52-.364 4.856-5.706 8.376-5.342-6.191zM56.328 29.909 45.28 32.094"/></g></svg>